<svg xmlns="http://www.w3.org/2000/svg" viewBox="0 0 75 69.69"><defs><style>.cls-1{fill:#5fcde9;}</style></defs><g id="Layer_2" data-name="Layer 2"><g id="Layer_1-2" data-name="Layer 1"><path class="cls-1" d="M33.57,10.83c.82,1,1.44,1.9,1.12,3.18a2.61,2.61,0,0,1-4.29,1.41c-1.94-1.8-3.79-3.7-5.62-5.61a2.49,2.49,0,0,1,0-3.49C26.63,4.41,28.5,2.53,30.41.7A2.6,2.6,0,0,1,34,.78a2.66,2.66,0,0,1,.15,3.64c-.26.32-.55.6-.86.93,1.67.24,3.28.4,4.85.72A29.41,29.41,0,0,1,38,63.71a28.67,28.67,0,0,1-5.47.55c-9.87.06-19.74,0-29.61,0a2.68,2.68,0,1,1,0-5.35h8.53c6.94,0,13.88,0,20.83,0a24.06,24.06,0,0,0,3.49-47.87C35,11,34.28,10.9,33.57,10.83Z"/><path class="cls-1" d="M2.59,35.41c.5-11.53,5.16-20.06,14.56-25.87a2.68,2.68,0,0,1,4.2,1.51,2.77,2.77,0,0,1-1.53,3.13,24,24,0,0,0-7.24,34.67,3.11,3.11,0,0,1,.75,2.71,2.55,2.55,0,0,1-2.06,2,2.61,2.61,0,0,1-2.76-1.15A27.75,27.75,0,0,1,3.39,41.14C3,39.07,2.8,37,2.59,35.41Z"/><path class="cls-1" d="M65.8,64.29c-3.31,0-6.4,0-9.49,0a2.67,2.67,0,1,1,0-5.34h9.43c-.35-.38-.59-.62-.82-.89a2.66,2.66,0,0,1,.11-3.64,2.6,2.6,0,0,1,3.63-.13q2.86,2.74,5.61,5.61a2.52,2.52,0,0,1,0,3.5c-1.84,1.9-3.71,3.78-5.62,5.61A2.61,2.61,0,0,1,65,68.9a2.68,2.68,0,0,1-.09-3.7Z"/></g></g></svg>