<?xml version="1.0" encoding="utf-8"?>
<!-- Generator: Adobe Illustrator 25.4.1, SVG Export Plug-In . SVG Version: 6.00 Build 0)  -->
<svg version="1.1" id="Layer_1" xmlns="http://www.w3.org/2000/svg" xmlns:xlink="http://www.w3.org/1999/xlink" x="0px" y="0px"
	 viewBox="0 0 98.2 88.8" style="enable-background:new 0 0 98.2 88.8;" xml:space="preserve">
<style type="text/css">
	.st0{fill:#5B2D90;}
	.st1{fill:#5C2D90;}
</style>
<g id="Layer_2_00000103226342542454166690000002593496285046909086_">
	<g id="Layer_1-2">
		<path class="st0" d="M0.3,48.3c0.8-8.3,4.4-16,10.2-22c5.2-5.4,11.9-9,19.3-10.3c2.1-0.4,4.2-0.6,6.3-0.6c4.3,0,8.7,0.1,13-0.1
			c7-0.2,13.7-2.8,19.1-7.2c1.1-0.9,2.2-1.9,3.2-3c0.2-0.3,0.4-0.5,0.8-0.4s0.3,0.5,0.3,0.9c-0.4,3.6-1.4,7.1-2.9,10.4
			c-0.6,1.2-1.2,2.4-1.9,3.5c-0.1,0.2-0.2,0.4-0.1,0.5s0.4,0.3,0.5,0.2c4.7-1.1,9.2-3.2,13.1-6c3.4-2.6,6.3-5.8,8.5-9.5
			c0.9-1.3,1.7-2.7,2.4-4.1C92.3,0.3,92.5,0,92.8,0s0.5,0.4,0.7,0.6c2.6,4.8,4.1,10.1,4.5,15.6c1.3,14.6-3.5,29-13.2,40
			c-7.6,8.9-17.7,15.3-29,18.3c-4,1.1-8.2,1.7-12.4,1.8c-2.4,0.1-4.8,0.1-7.2-0.1c-5.3-0.5-10.3-2.5-14.4-5.9
			c-4-3.1-6.8-7.3-8.1-12.2c-1.9-7-0.4-14.5,4-20.3c3.7-5.3,9.4-8.7,15.8-9.5c7.2-1.2,14.6,1.1,19.9,6.1c4.3,3.9,7.1,9.2,7.8,15
			c0.4,2,0.3,4.1-0.3,6.1c-0.4,1.6-1.4,3-2.9,3.7c-2.7,1.1-5.7-0.1-6.9-2.7c-0.1-0.3-0.2-0.6-0.3-1c-0.2-0.8-0.3-1.6-0.3-2.4v-9.9
			c0.1-3.4-2.6-6.3-6-6.4c-0.1,0-0.3,0-0.4,0h-8c-8.2-0.1-15,6.4-15.2,14.7c-0.1,5.6,3,10.8,8,13.4c5.9,3.1,13.2,1.9,17.7-3
			c0.2-0.2,0.4-0.4,0.5-0.6c0.8,1.4,2,2.5,3.4,3.3c5.4,2.9,12.3,1.7,15.5-5.1c1.2-2.5,1.6-5.3,1.3-8.1c-0.2-4.1-1.2-8.1-2.9-11.8
			c-4.3-9-11.3-14.8-21-16.9c-10.7-2.3-20.1,0.6-27.8,8.3c-4.7,4.6-7.7,10.7-8.5,17.3C5.9,56.9,8.5,65.5,14.3,72
			c4.7,5.3,11,8.9,18,10c4.3,0.7,8.7,0.9,13.1,0.5c5.3-0.4,10.6-1.4,15.7-3c5.1-1.7,10-4,14.5-6.9c0.2-0.1,0.4-0.4,0.5-0.2
			c0.3,0.3-0.1,0.4-0.3,0.6c-3.7,4-8,7.3-12.8,9.9c-4.9,2.5-10.1,4.3-15.5,5.1c-3.2,0.5-6.4,0.8-9.6,0.8c-7.3,0.2-14.5-1.6-20.8-5.4
			C8.4,78.1,3.3,70.5,1,60.9c-0.4-1.9-0.7-3.8-0.9-5.7c0-0.1-0.1-1.5-0.1-1.8v-2.7C0,49.6,0.3,48.7,0.3,48.3z"/>
		<path class="st1" d="M39.4,42.8h4.3c0.5,0,0.8,0.2,0.8,0.8c0,3,0.1,6-0.1,9c-0.4,3.9-3.2,7.1-7,7.9c-4.8,1-9.6-2-10.6-6.9
			c-1-4.8,2-9.6,6.9-10.6c0.6-0.1,1.2-0.2,1.8-0.2H39.4z"/>
	</g>
</g>
</svg>
