<svg xmlns="http://www.w3.org/2000/svg" viewBox="0 0 75 74.85"><defs><style>.cls-1{fill:#ff5b5b;}</style></defs><g id="Layer_2" data-name="Layer 2"><g id="Layer_1-2" data-name="Layer 1"><path class="cls-1" d="M0,35.09c.19-1.4.35-2.8.58-4.19A37.48,37.48,0,0,1,30.12.71a38,38,0,0,1,17.71.76,2.35,2.35,0,0,1,1.89,2.44,2.26,2.26,0,0,1-1.93,2.16A3.32,3.32,0,0,1,46.5,6,31.78,31.78,0,0,0,23.65,7.77C13.62,12.58,7.32,20.5,5.28,31.46A32.41,32.41,0,0,0,23.14,66.87,30.23,30.23,0,0,0,39.85,70C53.43,68.67,62.86,61.57,68,49a31.14,31.14,0,0,0,1.06-20,5.63,5.63,0,0,1-.29-1.85,2.22,2.22,0,0,1,2.09-2,2.24,2.24,0,0,1,2.46,1.74,58.14,58.14,0,0,1,1.31,6.87,36.17,36.17,0,0,1-7.06,25.8,36.61,36.61,0,0,1-25.8,15l-2,.26H35.09l-.49-.12c-1.71-.25-3.44-.41-5.13-.75A37.42,37.42,0,0,1,.58,44C.36,42.61.19,41.18,0,39.77Z"/><path class="cls-1" d="M37.43,63.27a25.83,25.83,0,1,1,6.49-50.82,2.38,2.38,0,0,1,2,1.82,2.32,2.32,0,0,1-3,2.74A21.57,21.57,0,0,0,32.26,17,21.12,21.12,0,1,0,58.2,41.17a21.75,21.75,0,0,0-.34-9.12,2.36,2.36,0,1,1,4.54-1.14A25.85,25.85,0,0,1,41.07,63C39.87,63.14,38.65,63.17,37.43,63.27Z"/><path class="cls-1" d="M75,13.7a7.21,7.21,0,0,1-.9,1.59Q70,19.47,65.83,23.56a2.81,2.81,0,0,1-1.53.73c-3.24.38-6.49.72-9.74,1a4.59,4.59,0,0,0-3.16,1.44c-4,4.12-8.1,8.16-12.17,12.21a2.34,2.34,0,0,1-4.06-.9A2.38,2.38,0,0,1,36,35.59q6.38-6.35,12.72-12.71a2.38,2.38,0,0,0,.8-1.62c.29-3.37.66-6.73,1-10.1A3.79,3.79,0,0,1,51.6,8.65C54.2,6.12,56.75,3.54,59.31,1A2.4,2.4,0,0,1,62.06.17a2.45,2.45,0,0,1,1.55,2.41c.16,2.51.39,5,.57,7.51,0,.45.22.55.63.58l7.72.59A2.64,2.64,0,0,1,75,13.7Zm-7.72,1.86c-1.49-.13-2.79-.26-4.09-.34-2.89-.18-3.38-.67-3.56-3.53-.08-1.32-.22-2.63-.34-4.13-1.42,1.43-2.71,2.72-4,4a1.1,1.1,0,0,0-.24.65c-.19,1.69-.37,3.39-.54,5.08-.1,1.08-.2,2.16-.3,3.27.2,0,.31,0,.43,0,2.15-.22,4.3-.55,6.46-.62a4.46,4.46,0,0,0,3.43-1.68C65.36,17.36,66.29,16.54,67.28,15.56Z"/><path class="cls-1" d="M37.75,28.12a9.33,9.33,0,1,0,9,9.74,6,6,0,0,1,.07-1,2.33,2.33,0,0,1,4.61.56A13.47,13.47,0,0,1,46.37,48.2c-4.68,3.75-9.9,4.42-15.24,1.71s-8-7.35-7.69-13.36a14,14,0,0,1,15-13.13,2.73,2.73,0,0,1,2,.81,2.32,2.32,0,0,1-1.59,3.89C38.48,28.14,38.11,28.12,37.75,28.12Z"/></g></g></svg>