<?xml version="1.0" encoding="utf-8"?>
<!-- Generator: Adobe Illustrator 24.1.2, SVG Export Plug-In . SVG Version: 6.00 Build 0)  -->
<svg version="1.1" id="Layer_1" xmlns="http://www.w3.org/2000/svg" xmlns:xlink="http://www.w3.org/1999/xlink" x="0px" y="0px"
	 viewBox="0 0 64 64" style="enable-background:new 0 0 64 64;" xml:space="preserve">
<style type="text/css">
	.st0{fill:#5C2D91;}
	.st1{fill:#FFFFFF;}
</style>
<circle class="st0" cx="32" cy="32" r="32"/>
<path class="st1" d="M8.4,41.4c-0.4,0-0.7-0.1-1-0.4C7.1,40.7,7,40.4,7,40c0-0.4,0.1-0.7,0.4-1c0.3-0.3,0.6-0.4,1-0.4
	c0.4,0,0.7,0.2,1,0.4c0.3,0.3,0.4,0.6,0.4,1c0,0.4-0.1,0.7-0.4,1C9.1,41.3,8.8,41.4,8.4,41.4z"/>
<path class="st1" d="M28.3,41.1h-2.6l-9.4-14.5c-0.2-0.4-0.4-0.7-0.6-1.1h-0.1c0.1,0.8,0.1,1.7,0.1,2.5v13.2h-2.1V22.9h2.8l9.1,14.3
	c0.4,0.6,0.6,1,0.7,1.2h0c-0.1-0.9-0.1-1.8-0.1-2.7V22.9h2.1V41.1z"/>
<path class="st1" d="M42.7,41.1H33V22.9h9.2v1.9h-7.1v6.1h6.6v1.9h-6.6v6.3h7.5L42.7,41.1z"/>
<path class="st1" d="M57,24.8h-5.3v16.3h-2.1V24.8h-5.2v-1.9H57V24.8z"/>
</svg>
