<svg xmlns="http://www.w3.org/2000/svg" viewBox="0 0 100 100.07"><defs><style>.cls-1{fill:#ff7373;}</style></defs><g id="Layer_2" data-name="Layer 2"><g id="Layer_1-2" data-name="Layer 1"><path class="cls-1" d="M30,66.74c0,1.25,0,2.36,0,3.47a3.32,3.32,0,0,0,3.13,3.18c.38,0,.77,0,1.15,0H96a6.39,6.39,0,0,1,1.45.09,3.32,3.32,0,0,1-.71,6.56c-3.47,0-6.94,0-10.41,0a7.84,7.84,0,0,0-1.17.06,10.47,10.47,0,0,1,6.48,4.33,9.79,9.79,0,0,1,1.53,7.64,10,10,0,0,1-19.69-.69c-.83-5,2.18-9.19,8.2-11.3H41.71C47.92,82.2,50.81,86.5,49.8,92a10,10,0,0,1-19.75-.94,10.27,10.27,0,0,1,8.12-11c-1.66,0-3.31.05-5,0a10,10,0,0,1-9.82-10.12,50.22,50.22,0,0,0-1.61-13.26C18.35,41.55,15,26.42,11.65,11.29a10.13,10.13,0,0,0-1-2.61,3.38,3.38,0,0,0-3.47-2,38,38,0,0,1-3.85,0A3.35,3.35,0,0,1,0,3.35,3.3,3.3,0,0,1,3.36.08a31.77,31.77,0,0,1,6,.13c4.69.85,7.27,4.12,8.48,8.47.95,3.37,1.57,6.83,2.34,10.24.08.37.18.73.29,1.15h75c.31,0,.62,0,.94,0a3.31,3.31,0,0,1,3.39,4.32Q96,39.74,92.19,55.06c-.2.78-.38,1.55-.57,2.33a12.29,12.29,0,0,1-12,9.34H30Zm-.66-6.67H79.48a5.64,5.64,0,0,0,5.71-4.5l5.58-22.3c.54-2.14,1.06-4.29,1.6-6.5H21.94C24.41,37.89,26.87,48.94,29.34,60.07ZM40,86.74a3.33,3.33,0,1,0,3.3,3.33A3.36,3.36,0,0,0,40,86.74Zm43.29,0A3.33,3.33,0,1,0,86.66,90,3.36,3.36,0,0,0,83.32,86.74Z"/></g></g></svg>