<svg xmlns="http://www.w3.org/2000/svg" viewBox="0 0 100 79.82"><defs><style>.cls-1{fill:#494949;}</style></defs><g id="Layer_2" data-name="Layer 2"><g id="Layer_1-2" data-name="Layer 1"><path class="cls-1" d="M100,61.37c-.74.89-1.43,1.82-2.23,2.65Q95,66.9,92.11,69.68a2.16,2.16,0,0,0-.72,1.79c0,1.72,0,3.45,0,5.18a2.94,2.94,0,1,1-5.86,0c0-1.83,0-3.65,0-5.47A2.27,2.27,0,0,0,85,69.86c-2.25-2.31-4.54-4.57-6.82-6.85-1.62-1.64-1.63-3.21,0-4.84,2.3-2.3,4.61-4.59,6.89-6.92a1.85,1.85,0,0,0,.5-1.17c0-7.68,0-15.36,0-23,0-.19,0-.38-.05-.69l-1,.36c-1.74.62-3.48,1.27-5.23,1.86a1.05,1.05,0,0,0-.84,1.19c0,5.79,0,11.59,0,17.38a4.63,4.63,0,0,1-1.57,3.7,27.67,27.67,0,0,1-11.26,6C58.52,59,51.26,59.31,43.94,58.92a48.43,48.43,0,0,1-15.14-3,25,25,0,0,1-8.21-5A4.89,4.89,0,0,1,18.94,47c.07-5.79,0-11.58,0-17.38a1.18,1.18,0,0,0-.92-1.32c-5.25-1.91-10.49-3.87-15.73-5.81A3,3,0,0,1,0,19.63a3,3,0,0,1,2.32-2.9L47.86.23a4.17,4.17,0,0,1,3,.13l39.78,14.4c1.83.66,3.67,1.32,5.49,2a3,3,0,0,1,0,5.73c-1.34.5-2.68,1-4,1.45a.85.85,0,0,0-.7,1c0,8.43,0,16.86,0,25.29a1.73,1.73,0,0,0,.5,1.07c2,2.1,4.15,4.14,6.19,6.24.69.71,1.26,1.54,1.89,2.31ZM11.48,19.64l1,.37q17.51,6.49,35,13a3.06,3.06,0,0,0,2.32,0q17.73-6.43,35.48-12.82l1.54-.56c-.41-.17-.58-.25-.76-.31Q67.95,12.78,49.89,6.26a2.56,2.56,0,0,0-1.57.06q-13.57,4.88-27.13,9.8ZM72.54,31l-1.11.39c-7,2.53-14.06,5-21.08,7.61a4.82,4.82,0,0,1-3.58,0c-7-2.62-13.94-5.18-20.92-7.76-.31-.12-.63-.21-1-.34,0,5.09,0,10,0,15a1.68,1.68,0,0,0,.86,1.7,38.18,38.18,0,0,0,5.86,3,57.11,57.11,0,0,0,29.86,1.28,26.65,26.65,0,0,0,10-4.06,2.45,2.45,0,0,0,1.23-2.3c-.07-4.43,0-8.85,0-13.28Zm15.85,33.8,4.26-4.25-4.11-4.13-4.26,4.28Z"/></g></g></svg>