<?xml version="1.0" encoding="utf-8"?>
<!-- Generator: Adobe Illustrator 25.4.1, SVG Export Plug-In . SVG Version: 6.00 Build 0)  -->
<svg version="1.1" id="Layer_1" xmlns="http://www.w3.org/2000/svg" xmlns:xlink="http://www.w3.org/1999/xlink" x="0px" y="0px"
	 viewBox="0 0 75 75" style="enable-background:new 0 0 75 75;" xml:space="preserve">
<style type="text/css">
	.st0{fill:#00D172;}
</style>
<g>
	<g>
		<path class="st0" d="M40,12.4c2.6,0,5,0,7.5,0c0-2.5,0-4.9,0-7.4c1.7,0,3.3,0,5,0c0,2.5,0,4.9,0,7.5c0.7,0,1.4,0,2.1,0
			c4.7,0,7.9,3.2,7.9,7.9c0,0.7,0,1.3,0,2.1c2.5,0,4.9,0,7.4,0c0,1.7,0,3.3,0,5c-2.4,0-4.9,0-7.4,0c0,2.5,0,5,0,7.5
			c4.1,0,8.3,0,12.4,0c0,1.7,0,3.3,0,5c-4.1,0-8.2,0-12.4,0c0,2.5,0,5,0,7.5c2.4,0,4.9,0,7.4,0c0,1.7,0,3.3,0,5c-2.4,0-4.9,0-7.4,0
			c-0.1,1.3,0,2.6-0.2,3.8c-0.5,3.5-3.6,6.1-7.1,6.2c-0.9,0-1.8,0-2.7,0c0,2.5,0,5,0,7.5c-1.7,0-3.3,0-5,0c0-2.4,0-4.9,0-7.4
			c-2.5,0-5,0-7.5,0c0,4.1,0,8.2,0,12.4c-1.7,0-3.3,0-5,0c0-4.1,0-8.2,0-12.4c-2.5,0-5,0-7.5,0c0,2.5,0,4.9,0,7.4c-1.7,0-3.3,0-5,0
			c0-2.5,0-4.9,0-7.5c-0.7,0-1.4,0-2.1,0c-4.7,0-7.9-3.2-7.9-7.9c0-0.7,0-1.3,0-2.1c-2.5,0-4.9,0-7.4,0c0-1.7,0-3.3,0-5
			c2.5,0,4.9,0,7.4,0c0-2.5,0-5,0-7.5C8.3,40,4.2,40,0,40c0-1.7,0-3.3,0-5c4.1,0,8.2,0,12.4,0c0-2.5,0-5,0-7.5c-2.4,0-4.9,0-7.4,0
			c0-1.7,0-3.3,0-5c2.4,0,4.9,0,7.4,0c0.1-1.3,0-2.6,0.2-3.8c0.5-3.5,3.6-6.1,7.2-6.2c0.9,0,1.7,0,2.7,0c0-1.3,0-2.5,0-3.8
			c0-1.2,0-2.4,0-3.7c1.7,0,3.3,0,5,0c0,2.4,0,4.9,0,7.4c2.5,0,5,0,7.5,0c0-4.1,0-8.2,0-12.4c1.7,0,3.3,0,5,0C40,4.1,40,8.2,40,12.4
			z M37.5,17.5c-5.7,0-11.4,0-17.1,0c-2,0-2.9,0.9-2.9,2.9c0,11.4,0,22.8,0,34.3c0,1.9,1,2.9,2.9,2.9c11.4,0,22.8,0,34.3,0
			c1.9,0,2.9-1,2.9-2.9c0-11.4,0-22.8,0-34.3c0-2-1-2.9-2.9-2.9C48.9,17.5,43.2,17.5,37.5,17.5z"/>
		<path class="st0" d="M35,26.6c0-1.4,0-2.8,0-4.1c1.7,0,3.3,0,5,0c0,1.3,0,2.7,0,4.1c2.1,0,4.2,0,6.2,0c0,1.7,0,3.3,0,5
			c-0.3,0-0.5,0-0.8,0c-3.3,0-6.5,0-9.8,0c-1.4,0-2.1,0.6-2.1,1.7c0,1.1,0.7,1.6,2.1,1.6c1.7,0,3.4-0.1,5,0.1
			c3.4,0.4,5.8,3.2,5.8,6.6c0,3.4-2.4,6.1-5.8,6.6c-0.2,0-0.4,0-0.6,0.1c0,1.4,0,2.7,0,4.1c-1.7,0-3.3,0-5,0c0-1.4,0-2.7,0-4.1
			c-2.1,0-4.1,0-6.2,0c0-1.7,0-3.3,0-5c0.3,0,0.6,0,0.8,0c3.3,0,6.5,0,9.8,0c1.3,0,2-0.6,2-1.6c0-1.1-0.7-1.7-2.1-1.7
			c-1.7,0-3.5,0.1-5.2-0.1c-3.5-0.5-5.7-3.4-5.6-6.9c0.1-3.3,2.7-5.9,6-6.3C34.7,26.7,34.8,26.7,35,26.6z"/>
	</g>
</g>
</svg>
