<svg xmlns="http://www.w3.org/2000/svg" viewBox="0 0 75 71.52"><defs><style>.cls-1{fill:#26ef7d;}</style></defs><g id="Layer_2" data-name="Layer 2"><g id="Layer_1-2" data-name="Layer 1"><path class="cls-1" d="M0,35.18C2,32.45,3.91,29.71,5.93,27a4.06,4.06,0,0,0,.88-2.74c-.08-3-.06-5.9-.07-8.86a2.35,2.35,0,0,1,1.91-2.64c3-1,6.09-1.9,9.12-2.9A2.48,2.48,0,0,0,19,9c1.87-2.56,3.7-5.15,5.54-7.73.95-1.32,1.71-1.56,3.28-1,3,1,6,2,9.08,3a2.28,2.28,0,0,0,1.32,0c3-1,6.06-2,9.09-3a2.37,2.37,0,0,1,3.21,1.05c1.86,2.6,3.7,5.21,5.59,7.79a2.29,2.29,0,0,0,1.07.77c3,1,6.08,1.94,9.12,2.91a2.36,2.36,0,0,1,2,2.73c0,3.17,0,6.34,0,9.52a2.54,2.54,0,0,0,.44,1.39c1.86,2.6,3.78,5.16,5.67,7.73a2.32,2.32,0,0,1,0,3.26c-1.89,2.57-3.8,5.13-5.67,7.73a2.54,2.54,0,0,0-.44,1.39c0,3.2,0,6.4,0,9.59a2.33,2.33,0,0,1-1.92,2.64c-3,1-6.08,1.94-9.13,2.88a2.22,2.22,0,0,0-1.24.92c-1.81,2.57-3.65,5.13-5.48,7.69a2.38,2.38,0,0,1-3.21,1.06c-3-1-6.05-2-9.09-3a2.25,2.25,0,0,0-1.31,0c-3,1-6.06,2-9.09,3-1.59.53-2.32.29-3.31-1.1C22.64,67.6,20.82,65,19,62.49a2.64,2.64,0,0,0-1.18-.85c-3-1-6.08-1.94-9.13-2.9A2.34,2.34,0,0,1,6.74,56.1c0-3.22,0-6.44,0-9.67a2.36,2.36,0,0,0-.41-1.26c-1.81-2.51-3.66-5-5.5-7.49-.31-.43-.58-.89-.87-1.33ZM47.54,66.67c1.87-2.62,3.67-5.2,5.55-7.72a3.58,3.58,0,0,1,1.67-1.19c2.76-.95,5.56-1.81,8.35-2.67a.78.78,0,0,0,.67-.91c0-2.88,0-5.76-.07-8.64a3.41,3.41,0,0,1,.71-2.24c1.75-2.32,3.44-4.68,5.19-7a.74.74,0,0,0,0-1.07c-1.72-2.28-3.38-4.6-5.1-6.88a3.7,3.7,0,0,1-.81-2.43c.06-2.86,0-5.71.08-8.57a.79.79,0,0,0-.67-.92c-2.81-.86-5.63-1.73-8.42-2.68a3.8,3.8,0,0,1-1.56-1.11c-.65-.75-1.18-1.62-1.76-2.43L47.54,4.86c-2.6.86-5.17,1.63-7.67,2.59a6.18,6.18,0,0,1-4.72,0c-2.51-1-5.11-1.74-7.7-2.6C25.62,7.43,23.79,10,22,12.51a3.26,3.26,0,0,1-1.78,1.31c-2.77.85-5.52,1.75-8.3,2.61a.83.83,0,0,0-.71.95c.06,2.83,0,5.67.09,8.5a3.78,3.78,0,0,1-.79,2.44C8.77,30.62,7.09,33,5.37,35.26a.69.69,0,0,0,0,1c1.74,2.33,3.44,4.68,5.19,7a3.65,3.65,0,0,1,.74,2.31c0,2.85,0,5.71-.08,8.57a.83.83,0,0,0,.7,1c2.73.83,5.44,1.72,8.16,2.55a3.62,3.62,0,0,1,2,1.48c1.76,2.51,3.56,5,5.36,7.52l.72-.22c2.73-.9,5.46-1.8,8.18-2.74a3.51,3.51,0,0,1,2.35,0C41.61,64.7,44.55,65.67,47.54,66.67Z"/><path class="cls-1" d="M33.35,41.14a8.45,8.45,0,0,1,.59-.79L48.17,26.11A2.56,2.56,0,0,1,50,25.18a2.21,2.21,0,0,1,1.83,3.54,5,5,0,0,1-.54.59l-16,16c-1.38,1.38-2.51,1.37-3.9,0l-7.82-7.82a2.24,2.24,0,0,1-.75-2.23,2.21,2.21,0,0,1,3.79-1c2.05,2,4.08,4.06,6.11,6.1C32.87,40.54,33,40.76,33.35,41.14Z"/></g></g></svg>