<svg xmlns="http://www.w3.org/2000/svg" viewBox="0 0 100 113.81"><defs><style>.cls-1{fill:#9797ff;}</style></defs><g id="Layer_2" data-name="Layer 2"><g id="Layer_1-2" data-name="Layer 1"><path class="cls-1" d="M22.42,0c.25.14.5.28.76.41a4.14,4.14,0,0,1,2,5.62,4,4,0,0,1-5.65,1.79,1.81,1.81,0,0,0-1.15-.2c-2.46.64-4.93,1.29-7.36,2.05-3.5,1.09-5.07,3.71-5.48,7.21A40.43,40.43,0,0,0,8.16,35.61a52.56,52.56,0,0,0,6.78,12.94,4.89,4.89,0,0,0,1.17.85,15.56,15.56,0,0,1,2.58,1.83,26.14,26.14,0,0,0,7.6,5.87c5,2.38,9.83,1.67,14.27-1.47,1.86-1.31,3.42-3,5.18-4.5a31.58,31.58,0,0,1,2.82-1.82,2.47,2.47,0,0,0,.76-.58c5.53-7.92,9.14-16.58,9.69-26.31a33.72,33.72,0,0,0-.6-7.49,6.29,6.29,0,0,0-4.44-5c-2.62-.89-5.31-1.59-8-2.32a1.73,1.73,0,0,0-1.14.2A4,4,0,0,1,39.21,6a4.15,4.15,0,0,1,2-5.62c.26-.12.51-.27.76-.4h1.78c.91.7,1.81,1.43,2.75,2.1a3.93,3.93,0,0,0,1.18.52c2.34.65,4.73,1.2,7,2,5.71,1.84,8.57,6,9.28,11.8.9,7.42-.47,14.52-3,21.45A58,58,0,0,1,53.57,51.9a1.77,1.77,0,0,0-.44,1,5.12,5.12,0,0,1-1.78,3.8c-3.86,4.12-8.23,7.44-13.77,9-.88.24-1.79.42-2.71.63,0,.31-.06.56-.06.81,0,6.12,0,12.23.07,18.34a23.33,23.33,0,0,0,46.45,2.93,30.41,30.41,0,0,0,.23-3.44c0-5.07,0-10.15,0-15.22,0-.74-.13-1.08-1-1.26a15.81,15.81,0,1,1,7.07,0c-.8.18-.88.57-.88,1.23q0,7.38,0,14.78a28.62,28.62,0,0,1-3.26,13.91c-4.5,8.28-11.35,13.46-20.69,15A27.53,27.53,0,0,1,38.61,106a28,28,0,0,1-9.06-21.12c0-5.78,0-11.55,0-17.33V66.43c-1.85-.57-3.65-1-5.36-1.68a30.88,30.88,0,0,1-11.88-8.9,7.78,7.78,0,0,1-1-2.19,9.9,9.9,0,0,0-.78-2.1A58.46,58.46,0,0,1,.81,29,38.78,38.78,0,0,1,.38,15.75C1.26,9.7,4.66,5.92,10.46,4.23c2.13-.62,4.29-1.13,6.43-1.72a2.84,2.84,0,0,0,1-.46c.95-.66,1.87-1.36,2.8-2ZM84.08,63.65A10.49,10.49,0,1,0,73.72,53,10.5,10.5,0,0,0,84.08,63.65Z"/><path class="cls-1" d="M92.07,53.3a7.86,7.86,0,1,1-7.68-8A7.83,7.83,0,0,1,92.07,53.3Z"/></g></g></svg>