<svg xmlns="http://www.w3.org/2000/svg" viewBox="0 0 100 99.97"><defs><style>.cls-1{fill:#5d7faf;}</style></defs><g id="Layer_2" data-name="Layer 2"><g id="Layer_1-2" data-name="Layer 1"><path class="cls-1" d="M46.87,0h6.25c1.7.22,3.42.38,5.1.68A49,49,0,0,1,89.73,19.76c8.93,11.77,12,25.07,9.34,39.59A48.12,48.12,0,0,1,82.14,88.2a48.72,48.72,0,0,1-38.9,11.31A48.1,48.1,0,0,1,16.75,87.26,49.16,49.16,0,0,1,.78,58.7C.44,56.86.26,55,0,53.12V46.87c.15-1.22.28-2.45.45-3.66A49.29,49.29,0,0,1,14.27,15.09,48.94,48.94,0,0,1,41.38.77C43.2.45,45,.25,46.87,0Zm37,82.08A46.13,46.13,0,0,0,95,37.23c-4.39-15-14.15-25.15-28.59-30.91.07.28.31.4.49.58a24.26,24.26,0,0,1,6.48,11,31,31,0,0,1,.87,8.8,14.5,14.5,0,0,0,6.17,12.41c.46.34.91.68,1.49,1.13-3.17,1.66-5.52,4.47-9.26,4.73,0,1,0,2,0,3a8,8,0,0,0,3.56,6.71A31.6,31.6,0,0,0,80,56.7c.47.25,1,.42,1.5.64a19.31,19.31,0,0,1-7.65,7c1.34.34,2.53.54,3.66.94a9.6,9.6,0,0,1,6.32,9.19C83.87,76.93,83.84,79.4,83.84,82.08ZM33.54,6.27C17.2,13.11,6.81,25,3.88,42.62,1.4,57.58,5.8,70.7,16,81.9a2.41,2.41,0,0,0,.17-1c0-2.28-.05-4.56,0-6.84A9.6,9.6,0,0,1,24,64.83l2.22-.47a18.83,18.83,0,0,1-7.79-7c5.88-2,9.09-5.82,8.93-12.15-3.82-.31-6.17-3.06-9-4.6a43.33,43.33,0,0,0,4.18-4.48,17.86,17.86,0,0,0,3.17-10.67,26.34,26.34,0,0,1,1.49-9.48A27,27,0,0,1,33.54,6.27ZM76.29,39.89l-.54-.61A17.43,17.43,0,0,1,71,28.5c-.16-2.43,0-4.89-.35-7.3A20.89,20.89,0,0,0,39.72,6c-7,4.07-10.62,10.34-10.66,18.5A23.8,23.8,0,0,1,26.92,35c-.89,1.83-2.05,3.51-3.12,5.3.3.2.73.5,1.17.78a4.59,4.59,0,0,0,7.28-3.95c0-3.39,0-6.77,0-10.16V25.79h3.25V29c6.37.29,11.09-2.29,14.51-7.57,3.46,5.33,8.18,7.88,14.51,7.56V25.87h3.23V27c0,3.38,0,6.77,0,10.15a4.5,4.5,0,0,0,4.77,4.47A6.83,6.83,0,0,0,76.29,39.89ZM64.47,32.22A18.2,18.2,0,0,1,50,26.71a18.18,18.18,0,0,1-14.41,5.53c0,3.91-.27,7.7.06,11.44a14.36,14.36,0,0,0,13.3,12.73A14.53,14.53,0,0,0,64.05,45.47a12.82,12.82,0,0,0,.4-2.89C64.5,39.17,64.47,35.77,64.47,32.22Zm8.11,58.69a44.81,44.81,0,0,0,7.75-5.39,1.13,1.13,0,0,0,.3-.76c0-3.58.06-7.16,0-10.74a6.29,6.29,0,0,0-4.75-5.88c-.78-.22-1.58-.37-2.38-.53l-4.69-.9C67.84,70,67,73.19,66,76.36a1.63,1.63,0,0,1-.83.9,21.87,21.87,0,0,1-2.86,1c-.6.16-.68.44-.54,1,.37,1.35.68,2.71,1.05,4.06a1.81,1.81,0,0,1-.27,1.63c-2.39,3.53-4.74,7.08-7.1,10.63-.18.27-.35.56-.58.9a3.35,3.35,0,0,0,.45,0,47.59,47.59,0,0,0,13.5-3.66c.58-.25.53-.65.53-1.1V75.84h3.24V90.91ZM30.65,75.81V77c0,4.91,0,9.82,0,14.74a1.06,1.06,0,0,0,.81,1.21c2.75.88,5.46,1.88,8.24,2.66a55.68,55.68,0,0,0,5.54,1c-.33-.51-.49-.78-.67-1C42.17,92,39.77,88.4,37.43,84.81a2.15,2.15,0,0,1-.25-1.43,39.69,39.69,0,0,1,1-4c.21-.71.1-1-.65-1.26-1.12-.32-2.52-.46-3.22-1.22s-.79-2.21-1.12-3.37c-.67-2.26-1.32-4.53-2-6.87-2.35.47-4.63.87-6.87,1.4a6.36,6.36,0,0,0-5,6.3c0,3.39,0,6.77,0,10.16A1.72,1.72,0,0,0,20,85.74c1.89,1.44,3.82,2.81,5.76,4.18.49.35,1,.61,1.74,1V75.81Zm-7-17.26a12.59,12.59,0,0,0,6.26,3.73,13.71,13.71,0,0,0,4.21.49c1.83-.15,3.63-.72,5.45-1,.64-.11.79-.4.77-1,0-1,0-2.08,0-3.12a1.41,1.41,0,0,0-.69-1.36,17.54,17.54,0,0,1-6.94-10.49c-.16-.67-.26-1.36-.38-2a2,2,0,0,0-1.71,2.41,13.33,13.33,0,0,1-.49,3.75A14.15,14.15,0,0,1,23.63,58.55ZM48.21,95.14l.19-.09c0-4.91,0-9.82,0-14.73a1.6,1.6,0,0,0-.58-1,25.8,25.8,0,0,1-8-12.46c-.17-.58-.36-1.16-.56-1.77l-4.84,1c.73,2.58,1.46,5,2.12,7.52a1.58,1.58,0,0,0,1.24,1.27c1.51.44,3,1,4.5,1.52-.56,2.2-1.11,4.27-1.57,6.36a2.17,2.17,0,0,0,.26,1.5c2.21,3.41,4.48,6.78,6.73,10.16C47.84,94.65,48,94.89,48.21,95.14Zm12.65-30c-.09.11-.15.15-.17.2-.1.28-.2.55-.28.83a26.17,26.17,0,0,1-8.3,13.27,1.78,1.78,0,0,0-.5,1.24c0,4.56,0,9.11,0,13.66,0,.27,0,.54.07,1l.68-1c2.18-3.27,4.35-6.56,6.56-9.8a2.32,2.32,0,0,0,.37-2.15c-.55-2-1-4-1.51-6a35.07,35.07,0,0,1,3.52-1.15,2.78,2.78,0,0,0,2.46-2.51,28.09,28.09,0,0,1,1-3.56c.29-1,.57-2,.87-3.09Zm6.81-21.62c-.78,5.31-2.62,9-6.34,12a4,4,0,0,0-1.69,3.74c.13,2.36,0,2.39,2.33,2.84,2.47.48,4.91,1.21,7.49.47a15.46,15.46,0,0,0,6.9-3.87l-.74-.46L75,57.76a11.58,11.58,0,0,1-5.32-7.62,27.46,27.46,0,0,1-.29-4.36C69.3,44.18,69.34,44.17,67.67,43.49ZM57.21,65.57a13.26,13.26,0,0,1-14.44,0A22.63,22.63,0,0,0,50,77,22.69,22.69,0,0,0,57.21,65.57ZM43.55,58.46c0,1.18,0,2.25,0,3.31a1.09,1.09,0,0,0,.41.69,10,10,0,0,0,12,0,1.09,1.09,0,0,0,.46-.67c0-1.08,0-2.17,0-3.38A18,18,0,0,1,43.55,58.46Z"/><path class="cls-1" d="M56.36,46.76A6.33,6.33,0,0,1,50,53.2c-3.55,0-6.63-3.07-6.35-6.44.87,0,1.74,0,2.6,0,.22,0,.52.33.59.56a3.23,3.23,0,0,0,6.35,0,1,1,0,0,1,.69-.56C54.67,46.71,55.48,46.76,56.36,46.76Z"/><path class="cls-1" d="M41.92,38.68a1.57,1.57,0,0,1-1.58-1.62,1.55,1.55,0,0,1,1.55-1.55,1.58,1.58,0,0,1,1.65,1.57A1.6,1.6,0,0,1,41.92,38.68Z"/><path class="cls-1" d="M59.65,37.12a1.6,1.6,0,1,1-1.59-1.61A1.58,1.58,0,0,1,59.65,37.12Z"/></g></g></svg>