<svg xmlns="http://www.w3.org/2000/svg" viewBox="0 0 100 69.28"><defs><style>.cls-1{fill:#744ca1;}</style></defs><g id="Layer_2" data-name="Layer 2"><g id="Layer_1-2" data-name="Layer 1"><path class="cls-1" d="M0,27.62c.83-1.84,2.29-2.37,4.24-2.36,8.45.06,16.9,0,25.35,0A3.23,3.23,0,0,1,33,27.48a3.09,3.09,0,0,1-2.62,4.06,11.13,11.13,0,0,1-1.16.05c-8.42,0-16.84,0-25.26,0-1.92,0-3.25-.63-4-2.43Z"/><path class="cls-1" d="M67.74,6.31h9.9c1,0,2,0,3,0a3.53,3.53,0,0,1,3.57,2.19c2.5,5,5.14,10,7.53,15.09C93.42,27.11,95.9,30,98.28,33A7.41,7.41,0,0,1,100,38c-.09,6.08,0,12.17,0,18.25,0,2.49-1.21,3.7-3.72,3.71s-5.08,0-7.62,0a1.07,1.07,0,0,0-1.24.86,12.56,12.56,0,0,1-23.77-.05,1,1,0,0,0-1.19-.8Q54,60,45.53,60a1.09,1.09,0,0,0-1.22.89,12.56,12.56,0,0,1-23.74,0A1.08,1.08,0,0,0,19.34,60c-2.31,0-4.62,0-6.93,0a3.17,3.17,0,1,1-.08-6.32c2.18,0,4.36,0,6.54,0H20.2A13.53,13.53,0,0,1,23,48.35,12.56,12.56,0,0,1,44.28,52.5a1.43,1.43,0,0,0,1.63,1.16c5.43,0,10.86,0,16.3,0a1.17,1.17,0,0,0,1.38-.94,12.54,12.54,0,0,1,23.85.07,1.05,1.05,0,0,0,1.23.87c1.62,0,3.24,0,5,0v-1c0-4.78,0-9.57,0-14.35a2.78,2.78,0,0,0-.51-1.49c-1.11-1.52-2.32-3-3.44-4.49a1.75,1.75,0,0,0-1.61-.8c-7.58,0-15.16,0-22.75,0-2.78,0-3.9-1.12-3.91-3.9V6.31H12.89a6.77,6.77,0,0,1-1.74-.18A3,3,0,0,1,9,2.84,3,3,0,0,1,11.65.06,10.8,10.8,0,0,1,12.92,0H63.68c3,0,4.06,1.08,4.06,4.05Zm17.8,18.84C83.46,21,81.46,17,79.41,13a1.22,1.22,0,0,0-.94-.41c-3.32,0-6.64,0-10,0-.25,0-.5.05-.73.07V25.15ZM75.47,50.43a6.27,6.27,0,1,0,6.33,6.21A6.29,6.29,0,0,0,75.47,50.43ZM38.72,56.82A6.28,6.28,0,1,0,32.25,63,6.26,6.26,0,0,0,38.72,56.82Z"/><path class="cls-1" d="M21.67,12.93H34.94a3.14,3.14,0,1,1,.28,6.27c-1.53.05-3.06,0-4.59,0H8.68a3.2,3.2,0,0,1-3.43-2.43A3.07,3.07,0,0,1,8.3,13c2.93,0,5.85,0,8.78,0Z"/><path class="cls-1" d="M15.52,37.72c2.47,0,4.95-.06,7.42,0a3.07,3.07,0,0,1,2.8,4.16A3,3,0,0,1,22.83,44C18,44,13.14,44,8.29,44a3.12,3.12,0,0,1-3.14-3.19A3.09,3.09,0,0,1,8.3,37.72c2.41,0,4.81,0,7.22,0Z"/></g></g></svg>