<svg xmlns="http://www.w3.org/2000/svg" viewBox="0 0 75 74.39"><defs><style>.cls-1{fill:#5c2d91;}</style></defs><g id="Layer_2" data-name="Layer 2"><g id="Layer_1-2" data-name="Layer 1"><path class="cls-1" d="M39.57,45.2c-.11.1-.28.24-.43.39Q34.43,50.29,29.71,55a1.54,1.54,0,0,0-.49,1.16c0,2.65-.13,5.31-.14,8a2.73,2.73,0,0,1-.78,2.07c-1.41,1.34-2.82,2.68-4.31,3.92s-3.29,2.58-5,3.82a2.47,2.47,0,0,1-1.28.45c-1.13.07-2.27,0-3.4,0A1.46,1.46,0,0,1,13,72c1.14-2,2.28-3.92,3.47-5.84a3.52,3.52,0,0,0,.08-3.77A6.93,6.93,0,0,0,11.88,59a3.27,3.27,0,0,0-3.63,1.69c-1.36,2-2.66,4.14-4,6.22-.36.57-.7,1.08-1.46,1.08a1.67,1.67,0,0,1-1.5-1.13A12.83,12.83,0,0,1,0,60.67a21,21,0,0,1,4.3-12.4A13.39,13.39,0,0,1,5.51,47,6.45,6.45,0,0,1,9.6,45.36c2.56-.32,5.11-.7,7.67-1.08a1.82,1.82,0,0,0,1-.42c3.31-3.27,6.59-6.57,9.88-9.86a2.16,2.16,0,0,0,.16-.22c-.12-.14-.23-.29-.36-.42-2.54-2.54-5.09-5.08-7.61-7.64a.92.92,0,0,0-1.09-.25A7.62,7.62,0,0,1,12,24.07a5.32,5.32,0,0,1-1.08-1.19Q6.48,16.13,2.07,9.36c-.75-1.15-.7-1.64.25-2.59L7.64,1.45c.9-.9,1.41-1,2.46-.28C14.56,4.07,19,7,23.46,9.87c2.51,1.65,3.37,4.1,3.19,7a3.76,3.76,0,0,1-.26,1.3,1.12,1.12,0,0,0,.36,1.45c2.64,2.58,5.25,5.19,7.9,7.83l.51-.49c2.78-2.78,5.56-5.58,8.36-8.34a2.63,2.63,0,0,0,.77-1.6q.59-4.39,1.22-8.77a5.27,5.27,0,0,1,1.57-2.86A16.68,16.68,0,0,1,54,1.26,17.2,17.2,0,0,1,64.76.59,11.48,11.48,0,0,1,67,1.51,1.46,1.46,0,0,1,67,4.2c-2.08,1.31-4.17,2.61-6.23,4a6.1,6.1,0,0,0-1.26,1.12A3,3,0,0,0,59,12.39a8,8,0,0,0,2.5,3.67,3.86,3.86,0,0,0,4.77.35l5.59-3.31c1.36-.8,2.45-.18,2.46,1.41,0,1.1,0,2.21,0,3.32A2.25,2.25,0,0,1,73.87,19c-2,2.62-4.13,5.2-6.21,7.79-.17.21-.37.4-.55.6a4.53,4.53,0,0,1-3.93,1.71c-2.38-.1-4.77.06-7.16.15a1.54,1.54,0,0,0-1,.38c-3,3-6,5.95-8.92,8.93a.66.66,0,0,0-.09.12l3.88,3.93c1-1,2-2,3-3a1.56,1.56,0,0,1,2.6,0Q63.83,48,72.14,56.33a9.75,9.75,0,0,1,2,10.93c-1.79,3.78-4.69,6.3-9,6.77a9.33,9.33,0,0,1-7.84-2.68C51.61,65.77,46,60.12,40.39,54.5a1.45,1.45,0,0,1,0-2.32c1-1,2-2.06,3-3ZM16.73,71.37l.11.18a6.94,6.94,0,0,0,1.07-.41A11.28,11.28,0,0,0,19,70.3c2.16-1.78,4.34-3.55,6.48-5.36a1.73,1.73,0,0,0,.58-1.09c.14-3,.19-5.91.34-8.85a2.47,2.47,0,0,1,.62-1.42c1.13-1.23,2.34-2.39,3.53-3.57,2.32-2.3,4.66-4.6,7-6.86l-2.67-2.64a4.06,4.06,0,0,1-.43.61q-4.74,4.77-9.5,9.51a5.22,5.22,0,0,1-.6.55,1.44,1.44,0,0,1-2-2,5.22,5.22,0,0,1,.55-.6c3-3,5.91-5.92,8.88-8.87.4-.4.84-.75,1.21-1.07l-2.76-2.82a4.38,4.38,0,0,1-.45.64Q24.89,41.37,20,46.26a2.86,2.86,0,0,1-1.44.77c-2.89.46-5.79.91-8.69,1.22a4.44,4.44,0,0,0-3.14,1.68A8.14,8.14,0,0,0,6,50.8a18.57,18.57,0,0,0-3,7.93,35.86,35.86,0,0,0,0,4.15l.2,0,.39-.59c.83-1.22,1.6-2.48,2.49-3.65,1.44-1.87,3.33-3,5.74-2.67a9.46,9.46,0,0,1,7.5,5.45,6,6,0,0,1-.34,6.19C18.15,68.85,17.46,70.13,16.73,71.37ZM54.28,42.56c-3.62,3.63-7.22,7.23-10.85,10.85.07.07.17.21.29.32Q51.33,61.37,59,69a8.33,8.33,0,0,0,2,1.46,7.29,7.29,0,0,0,8.77-1.86c3.07-3.27,3.12-7.46,0-10.64Q62.24,50.48,54.76,43ZM39.38,32.07l.54-.52,8.41-8.4c.21-.21.41-.43.63-.62a1.44,1.44,0,0,1,2,2c-.13.15-.28.29-.41.43q-4.3,4.31-8.59,8.63c-.19.19-.37.39-.45.48l2.55,2.52a3.15,3.15,0,0,1,.39-.5c3-3,6-6,9-8.88A2.62,2.62,0,0,1,55,26.54c2.85-.16,5.7-.25,8.56-.31a1.58,1.58,0,0,0,1.34-.56c2.11-2.6,4.23-5.19,6.31-7.8.19-.24.17-.63.28-1.12-1.48.88-2.77,1.59-4,2.39a5.85,5.85,0,0,1-4.61.69c-3.14-.69-5-2.88-6.26-5.66a6.25,6.25,0,0,1,2.13-8.1c1.21-.89,2.48-1.68,3.73-2.52l.56-.4a14.71,14.71,0,0,0-7.22.58,16,16,0,0,0-6.35,3.46,3.3,3.3,0,0,0-1.12,2c-.39,3-.84,5.89-1.21,8.85a3.73,3.73,0,0,1-1.16,2.29c-2.9,2.84-5.76,5.73-8.63,8.6-.19.19-.37.39-.51.54ZM5,8.44l.3.49c2.58,4,5.25,7.85,7.69,11.88A4.91,4.91,0,0,0,19.82,22a18.48,18.48,0,0,0,3-3,4.78,4.78,0,0,0-1.2-6.9c-1.9-1-3.64-2.34-5.45-3.52L9.29,4.11ZM22.53,23.59,45.63,46.7l2-1.86L24.48,21.7Z"/><path class="cls-1" d="M66.32,63.83A1.58,1.58,0,0,1,64,65.12a2.92,2.92,0,0,1-.5-.43l-12-12A1.55,1.55,0,0,1,50.9,51a1.43,1.43,0,0,1,2.21-.73,3.31,3.31,0,0,1,.44.4q6,6,12,11.94A8,8,0,0,1,66.32,63.83Z"/></g></g></svg>