<?xml version="1.0" encoding="utf-8"?>
<!-- Generator: Adobe Illustrator 25.4.1, SVG Export Plug-In . SVG Version: 6.00 Build 0)  -->
<svg version="1.1" id="Layer_1" xmlns="http://www.w3.org/2000/svg" xmlns:xlink="http://www.w3.org/1999/xlink" x="0px" y="0px"
	 viewBox="0 0 630.9 412.1" style="enable-background:new 0 0 630.9 412.1;" xml:space="preserve">
<style type="text/css">
	.st0{fill:#D1D1D1;}
	.st1{fill:#3F6193;}
	.st2{fill:#83CD29;}
	.st3{fill:#E23237;}
	.st4{fill:#B52E31;}
	.st5{fill:#FFFFFF;}
	.st6{fill:#61DAFB;}
	.st7{fill:#10AA50;}
	.st8{fill:#B8C4C2;}
	.st9{fill:#12924F;}
	.st10{fill:#775230;}
	.st11{fill:#AAAAAA;}
</style>
<path class="st0" d="M359.6,94.2c-1.9-5-3.2-10.2-3.9-15.6c-24.6,13.4-45,33.7-58.4,58.3c5.4,0.7,10.7,2,15.6,3.9
	C324.3,121.6,340.3,105.5,359.6,94.2z"/>
<path class="st0" d="M536.6,140.8c5-1.9,10.2-3.2,15.6-3.9c-13.4-24.6-33.7-44.9-58.3-58.3c-0.7,5.4-2,10.7-3.9,15.6
	C509.3,105.5,525.4,121.6,536.6,140.8z"/>
<path class="st0" d="M359.6,317.9c-19.2-11.3-35.3-27.3-46.6-46.6c-5,1.9-10.2,3.2-15.6,3.9c13.4,24.6,33.7,44.9,58.4,58.3
	C356.4,328.1,357.7,322.9,359.6,317.9z"/>
<path class="st0" d="M536.6,271.3c-11.3,19.2-27.3,35.3-46.6,46.6c1.9,5,3.2,10.2,3.9,15.6c24.6-13.4,44.9-33.7,58.3-58.3
	C546.8,274.5,541.6,273.2,536.6,271.3z"/>
<path class="st0" d="M219.1,198.9H139c0.2,2.4,0.4,4.8,0.4,7.2s-0.1,4.8-0.4,7.2h80.1c-0.2-2.4-0.4-4.8-0.4-7.2
	S218.9,201.2,219.1,198.9z"/>
<g id="Layer_2_00000008864455710872611460000007921375889235463841_">
	<g id="Layer_1-2_00000134959508426611810040000007780231884114896540_">
		<rect x="1792.9" y="198.9" class="st0" width="110.1" height="14.4"/>
		<path class="st0" d="M2091.4,351.1c-80,0-145-65-145-145s65-145,145-145s145,65.1,145,145S2171.3,351.1,2091.4,351.1z
			 M2091.4,76.6c-71.4,0-129.5,58.1-129.5,129.5c0.1,71.5,58,129.4,129.5,129.5c71.4,0,129.5-58.1,129.5-129.5
			C2220.8,134.6,2162.8,76.7,2091.4,76.6L2091.4,76.6z"/>
		<circle class="st1" cx="2227.7" cy="206.1" r="69.7"/>
		<path class="st2" d="M2268,178.5l-36.1-20.9c-2.3-1.3-5.2-1.3-7.5,0l-36.4,20.9c-2.4,1.3-3.9,3.9-4,6.6V227
			c0.1,2.8,1.6,5.3,4.1,6.6l9.6,5.5c4.6,2.3,6.2,2.3,8.3,2.3c6.8,0,10.7-4.1,10.7-11.3v-41.3c0-0.6-0.3-1.4-0.9-1.4h-4.6
			c-0.6,0-1.9,0.9-1.9,1.4V230c0,3.2-2.9,6.4-8.3,3.7l-9.9-5.7c-0.4-0.2-0.6-0.6-0.6-1v-41.8c0-0.4,0.5-0.8,0.8-1l36.3-20.9
			c0.4-0.2,0.8-0.2,1.2,0l35.9,20.9c0.3,0.2,0.2,0.6,0.2,1V227c0,0.4,0.2,0.8-0.2,1l-36.1,20.9c-0.3,0.2-0.7,0.2-1,0l-9.2-5.5
			c-0.3-0.2-0.6-0.2-0.9-0.1c-1.7,1.1-3.5,1.9-5.5,2.5c-0.6,0.2-1.5,0.6,0.3,1.6l12.1,7.1c2.4,1.4,5.3,1.4,7.6,0l35.9-20.9
			c2.3-1.4,3.6-3.9,3.4-6.6v-41.8C2271.6,182.5,2270.3,179.9,2268,178.5z M2239.5,220.3c-9.6,0-11.7-2.6-12.4-7.4
			c-0.1-0.5-0.5-1.1-1-1.1h-4.7c-0.6,0-1,0.7-1,1.3c0,6.1,3.3,13.5,19.2,13.5c11.5,0,18.1-4.5,18.1-12.4s-5.3-9.9-16.4-11.4
			c-11.1-1.5-12.4-2.2-12.4-4.9c0-2.2,1-5.1,9.3-5.1c7.4,0,10.2,1.6,11.3,6.6c0.1,0.5,0.5,0.8,1,0.8h4.7c0.3,0,0.6-0.1,0.8-0.3
			s0.3-0.5,0.3-0.8c-0.7-8.6-6.5-12.7-18.1-12.7c-10.3,0-16.5,4.4-16.5,11.7c0,7.9,6.1,10.1,16.1,11.1c11.9,1.2,12.8,2.9,12.8,5.2
			C2250.4,218.6,2247.1,220.3,2239.5,220.3z"/>
		<circle class="st1" cx="2091.4" cy="69.7" r="69.7"/>
		<path class="st3" d="M2051.5,41.4l39.4-14l40.4,13.8l-6.5,52.1l-33.9,18.8l-33.4-18.5L2051.5,41.4z"/>
		<path class="st4" d="M2131.2,41.2l-40.4-13.8V112l33.9-18.7L2131.2,41.2L2131.2,41.2z"/>
		<path class="st5" d="M2090.9,37.3l-24.5,54.6l9.2-0.2l4.9-12.3h22l5.4,12.5l8.8,0.2L2090.9,37.3z M2090.9,54.8l8.3,17.3h-15.6
			L2090.9,54.8z"/>
		<circle class="st1" cx="2091.4" cy="342.5" r="69.7"/>
		<circle class="st6" cx="2091.4" cy="342.5" r="8.3"/>
		<path class="st6" d="M2123,328.7c-1.6-0.6-3.3-1.2-5-1.7c0.4-1.8,0.8-3.5,1.1-5.2c1.5-9.6-0.1-16.4-4.8-19.1
			c-1.4-0.8-3-1.2-4.7-1.2c-5.1,0-11.6,3.8-18.2,10.1c-6.6-6.4-13.1-10.1-18.2-10.1c-1.6,0-3.2,0.4-4.7,1.2
			c-4.7,2.7-6.4,9.5-4.8,19.1c0.3,1.7,0.7,3.4,1.1,5.2c-1.7,0.5-3.4,1-5,1.7c-9.1,3.5-14.1,8.3-14.1,13.7s5,10.2,14.1,13.7
			c1.6,0.6,3.3,1.2,5,1.7c-0.4,1.8-0.8,3.5-1.1,5.2c-1.5,9.6,0.1,16.4,4.8,19.1c1.4,0.8,3,1.2,4.7,1.2c5.2,0,11.7-3.8,18.2-10.2
			c6.6,6.4,13.1,10.2,18.2,10.2c1.6,0,3.3-0.4,4.7-1.2c4.7-2.7,6.4-9.5,4.8-19.1c-0.3-1.7-0.7-3.4-1.1-5.2c1.7-0.5,3.4-1,5-1.7
			c9.1-3.5,14.1-8.3,14.1-13.7S2132.1,332.2,2123,328.7z M2112.2,306.4c3,1.8,4,7.2,2.8,14.8c-0.2,1.6-0.6,3.2-1,4.8
			c-4-0.9-8-1.5-12.1-1.8c-2.3-3.3-4.9-6.5-7.6-9.5c5.4-5.3,10.9-9,15.3-9C2110.5,305.8,2111.4,306,2112.2,306.4z M2104,349.8
			c-1.3,2.3-2.8,4.7-4.4,7c-2.7,0.2-5.4,0.3-8.2,0.3s-5.6-0.1-8.2-0.3c-1.6-2.3-3.1-4.7-4.4-7c-1.4-2.4-2.7-4.9-3.9-7.3
			c1.2-2.4,2.5-4.9,3.9-7.3s2.8-4.7,4.4-7c2.7-0.2,5.4-0.3,8.2-0.3s5.5,0.1,8.2,0.3c1.6,2.3,3.1,4.7,4.4,7c1.4,2.4,2.7,4.9,3.9,7.3
			C2106.6,344.9,2105.4,347.3,2104,349.8z M2110,347.3c1.1,2.6,2,5,2.8,7.5c-2.6,0.6-5.2,1.1-7.9,1.4c0.9-1.4,1.8-2.9,2.6-4.4
			S2109.2,348.8,2110,347.3z M2091.4,367.1c-1.8-1.9-3.4-4-5-6.1c1.7,0.1,3.4,0.1,5,0.1s3.4-0.1,5-0.1
			C2094.8,363.2,2093.1,365.2,2091.4,367.1z M2077.8,356.2c-2.8-0.4-5.4-0.8-7.9-1.4c0.8-2.4,1.7-5,2.8-7.5c0.8,1.5,1.6,3,2.5,4.5
			C2076,353.2,2076.9,354.7,2077.8,356.2z M2072.7,337.5c-1.1-2.5-2-5-2.8-7.5c2.5-0.6,5.1-1,7.9-1.4c-0.9,1.4-1.8,2.9-2.6,4.4
			S2073.5,336.1,2072.7,337.5L2072.7,337.5z M2091.4,317.8c1.8,1.9,3.4,4,5,6.1c-1.7-0.1-3.4-0.1-5-0.1s-3.4,0.1-5,0.1
			C2087.9,321.7,2089.6,319.7,2091.4,317.8L2091.4,317.8z M2107.5,333.1l-2.6-4.4c2.7,0.3,5.3,0.8,7.9,1.4c-0.8,2.4-1.7,5-2.8,7.5
			C2109.2,336.1,2108.4,334.6,2107.5,333.1z M2067.7,321.3c-1.2-7.7-0.2-13.1,2.8-14.8c0.8-0.4,1.7-0.7,2.6-0.7
			c4.4,0,9.9,3.6,15.3,9c-2.7,3-5.3,6.2-7.6,9.5c-4.1,0.4-8.1,1-12.1,1.8C2068.3,324.4,2068.1,322.8,2067.7,321.3L2067.7,321.3z
			 M2049.7,342.5c0-3.4,4.2-7.1,11.5-9.8c1.5-0.6,3.1-1.1,4.7-1.5c1.2,3.9,2.7,7.7,4.4,11.4c-1.7,3.7-3.2,7.5-4.4,11.3
			C2055.8,350.9,2049.7,346.5,2049.7,342.5L2049.7,342.5z M2070.6,378.5c-3-1.8-4-7.2-2.8-14.8c0.2-1.6,0.6-3.2,1-4.8
			c4,0.9,8,1.5,12.1,1.8c2.3,3.3,4.9,6.5,7.6,9.5c-5.4,5.3-10.9,9-15.3,9C2072.2,379.1,2071.3,378.9,2070.6,378.5L2070.6,378.5z
			 M2115,363.6c1.2,7.7,0.2,13.1-2.8,14.8c-0.8,0.4-1.7,0.7-2.6,0.6c-4.4,0-9.9-3.6-15.3-9c2.7-3,5.3-6.2,7.6-9.5
			c4.1-0.4,8.1-1,12.1-1.8C2114.4,360.5,2114.7,362.1,2115,363.6L2115,363.6z M2121.5,352.2c-1.5,0.6-3.1,1.1-4.7,1.5
			c-1.2-3.9-2.7-7.7-4.4-11.4c1.7-3.7,3.2-7.5,4.4-11.3c10.1,2.9,16.1,7.3,16.1,11.4C2133,345.9,2128.7,349.5,2121.5,352.2z"/>
		<circle class="st1" cx="1736.2" cy="206.1" r="69.7"/>
		<path class="st7" d="M1751.9,187.9c-3.8-16.8-11.7-21.2-13.7-24.4c-0.8-1.4-1.6-2.8-2.2-4.3c0.1,1.4-0.5,2.7-1.6,3.6
			c-2.5,2.3-13.3,11.1-14.2,30.1c-0.8,17.8,13.1,28.7,14.9,29.9c1.4,0.5,2.9,0.3,4-0.6C1745.7,217.5,1754.8,205.2,1751.9,187.9"/>
		<path class="st8" d="M1736.5,213.3c-0.3,4.4-0.6,6.9-1.5,9.5c0,0,0.6,4.2,1,8.6h1.4c0.3-3.1,0.9-6.2,1.6-9.3
			C1737.1,221.1,1736.5,217.1,1736.5,213.3z"/>
		<path class="st9" d="M1739,222.1L1739,222.1c-1.9-0.9-2.5-5-2.5-8.8c0.5-6.3,0.6-12.7,0.4-19c-0.1-3.3,0-30.7-0.8-34.7
			c0.6,1.4,1.2,2.7,2,3.9c2,3.2,9.9,7.6,13.7,24.4C1754.8,205.2,1745.7,217.4,1739,222.1z"/>
		<path class="st5" d="M1768.8,249.1c-0.7,0-1.2-0.6-1.2-1.2s0.6-1.2,1.2-1.2c0.7,0,1.2,0.5,1.2,1.2
			C1770.1,248.5,1769.5,249.1,1768.8,249.1L1768.8,249.1L1768.8,249.1 M1768.8,246.8c-0.6,0-1.1,0.5-1.1,1.1s0.5,1.1,1.1,1.1
			s1.1-0.5,1.1-1.1l0,0l0,0C1769.9,247.3,1769.5,246.8,1768.8,246.8L1768.8,246.8 M1769.2,248.6l-0.3-0.7h-0.3v0.7h-0.2v-1.5h0.4
			c0.3,0,0.5,0.1,0.5,0.4c0,0.2-0.1,0.4-0.3,0.4L1769.2,248.6L1769.2,248.6z M1768.6,247.8h0.3c0.2,0,0.3-0.1,0.3-0.3
			s-0.1-0.3-0.3-0.3h-0.3V247.8z"/>
		<path class="st5" d="M1750.8,248c0.5,0.3,1,0.4,1.6,0.4c0.8,0,1.6-0.2,2.2-0.8c0.9-0.9,1.3-2.1,1.2-3.3c0.1-1.4-0.6-2.8-1.8-3.6
			c-0.8-0.4-1.7-0.6-2.6-0.6c-0.3,0-0.5,0-0.8,0.1c-0.1,0.1-0.1,0.1-0.1,0.2c0,0.3,0,2.4,0,3.6s0,3.1,0,3.3
			C1750.5,247.6,1750.6,247.8,1750.8,248 M1747.7,239.4c0.3,0,1.3,0.1,1.7,0.1c0.9,0,1.5-0.1,3.1-0.1c1.2-0.1,2.4,0.3,3.3,1.1
			c1,0.9,1.6,2.2,1.5,3.5c0.1,1.6-0.6,3.1-1.9,4c-1.2,0.8-2.5,1.2-3.9,1.1h-3.9l0,0c-0.1-0.1,0.1-0.6,0.2-0.6c0.2,0,0.4-0.1,0.6-0.1
			c0.3-0.1,0.3-0.3,0.4-0.8c0.1-1,0-2.1,0-3.4c0-0.9,0-2.7,0-3.3s-0.2-0.6-0.7-0.7c-0.3-0.1-0.6-0.1-0.9-0.1
			C1747.4,240,1747.6,239.6,1747.7,239.4"/>
		<path class="st5" d="M1761.3,240.2c-0.1,0-0.1,0.2-0.1,0.2c0,0.6,0,2,0,3c0,0,0,0.1,0.1,0.1c0.2,0,0.7,0,1.1,0s0.8,0,1.1-0.2
			c0.5-0.3,0.8-0.8,0.7-1.4c0-1.3-0.9-1.8-2.3-1.8C1761.7,240.1,1761.5,240.1,1761.3,240.2 M1764.9,246.3c0-1.4-1-2.1-2.8-2.1
			c-0.3,0-0.5,0-0.8,0l-0.1,0.1c0,1,0,2.5,0,3.1c0,0.3,0.2,0.6,0.4,0.7c0.4,0.1,0.8,0.2,1.2,0.2c1,0.1,1.9-0.7,2-1.7
			C1764.8,246.5,1764.8,246.4,1764.9,246.3 M1758.5,239.4c0.1,0,0.6,0.1,1.6,0.1c1.1,0,1.8,0,2.8,0c1.2,0,2.9,0.4,2.9,2.2
			c-0.1,0.9-0.6,1.6-1.4,1.9c0,0,0,0,0,0.1c1.2,0.2,2,1.1,2.1,2.3c0,1.2-0.8,2.3-2,2.7c-0.8,0.3-1.7,0.5-2.6,0.4
			c-0.7,0-2.6-0.1-3.6-0.1c-0.1,0,0.1-0.5,0.2-0.6c0.2,0,0.5,0,0.7-0.1c0.4-0.1,0.4-0.2,0.5-0.8s0-2.2,0-3.4c0-1.7,0-2.8,0-3.3
			s-0.2-0.6-0.5-0.6c-0.3-0.1-0.6-0.1-0.9-0.1C1758.2,239.9,1758.4,239.5,1758.5,239.4"/>
		<path class="st5" d="M1702.5,249.1c0-0.1,0-0.2,0-0.3s0-0.1,0-0.2c0.2,0,0.4-0.1,0.6-0.1c0.3-0.1,0.4-0.2,0.4-0.6
			c0-0.8,0.1-2.4,0-3.5l0,0c0-0.1,0-0.3-0.1-0.4c-0.3-0.2-0.5-0.3-0.8-0.4c-0.1,0-0.2-0.1-0.2-0.2s0.1-0.2,0.2-0.2
			c0.7-0.1,1.4-0.3,2.1-0.5c0,0.1,0.1,0.1,0.1,0.2v0.1c0,0.2,0,0.3,0,0.5s0.1,0.1,0.1,0.1h0.1c0.6-0.5,1.3-0.8,2.1-0.9
			c0.7,0,1.3,0.4,1.6,1h0.1h0.1c0.6-0.5,1.4-0.9,2.2-1c1.3,0,2,1,2,2.6c0,0.5,0,1,0,1.6v1.2c0,0.1,0.1,0.3,0.2,0.3
			c0.3,0.1,0.5,0.2,0.8,0.2l0,0c0,0.2,0,0.4-0.1,0.5h-0.3c-0.3,0-0.6,0-1,0c-0.8,0-1.3,0-1.7,0.1c0-0.2,0-0.3,0-0.5
			c0.2,0,0.3-0.1,0.5-0.1c0.3-0.1,0.3-0.2,0.4-0.6s0.1-2.5,0-3c-0.1-0.7-0.7-1.2-1.4-1.2c-0.5,0-1,0.2-1.4,0.5l-0.1,0.1l0,0
			c0.1,0.4,0.1,0.8,0.1,1.1s0,0.6,0,0.9c0,0.6,0,1.2,0,1.6c0,0.2,0.1,0.4,0.3,0.4h0.2c0.1,0,0.3,0.1,0.4,0.1c0,0.1,0,0.3,0,0.4v0.1
			c-0.5,0-1,0-1.7,0h-0.9h-0.6c0-0.1-0.1-0.2,0-0.3c0-0.1,0-0.2,0-0.2h0.2c0.1,0,0.3-0.1,0.4-0.1c0.2-0.1,0.3-0.2,0.3-0.5
			c0.1-1,0.1-2.1,0-3.1c0-0.7-0.6-1.2-1.3-1.2c-0.5,0-1,0.2-1.4,0.5c-0.1,0.1-0.1,0.2-0.1,0.3v0.8c0,1,0,2.2,0,2.8
			c0,0.2,0.2,0.4,0.4,0.4l0.3,0.1h0.2c0,0.2,0,0.4,0,0.5h-0.5c-0.3,0-0.7,0-1.1,0s-0.8,0-1.1,0L1702.5,249.1"/>
		<path class="st5" d="M1718.2,243.3c-0.3,0-0.5,0.1-0.7,0.2c-0.6,0.5-0.9,1.2-0.8,2c0,1.8,0.9,3.1,2.2,3.1c0.4,0,0.7-0.1,1-0.3
			c0.5-0.5,0.7-1.2,0.6-1.9C1720.5,244.6,1719.6,243.4,1718.2,243.3 M1718.5,249.3c-1.7,0.1-3.1-1.1-3.2-2.8c0-0.2,0-0.4,0-0.5
			c0-1,0.5-2,1.4-2.6c0.6-0.4,1.4-0.6,2.1-0.6c1.7,0,3,1.3,3,3v0.1c0.1,1.1-0.5,2.2-1.4,2.9C1719.8,249,1719.2,249.2,1718.5,249.3"
			/>
		<path class="st5" d="M1742.1,243.3c-0.3,0-0.5,0.1-0.7,0.2c-0.6,0.5-0.9,1.2-0.8,2c0,1.8,0.9,3.1,2.2,3.1c0.4,0,0.7-0.1,1-0.3
			c0.5-0.5,0.7-1.2,0.6-1.9C1744.3,244.6,1743.4,243.4,1742.1,243.3 M1742.4,249.3c-1.7,0.1-3.1-1.2-3.2-2.8c0-0.2,0-0.3,0-0.5
			c0-1.1,0.5-2.1,1.3-2.6c0.6-0.4,1.4-0.6,2.1-0.6c1.6,0,3,1.3,3,2.9c0,0.1,0,0.2,0,0.2c0.1,1.1-0.5,2.2-1.4,2.9
			C1743.6,249,1743,249.2,1742.4,249.3"/>
		<path class="st5" d="M1734.2,243.3c-0.7,0-1.2,0.6-1.2,1.4s0.4,1.9,1.5,1.9c0.3,0,0.5-0.1,0.7-0.3c0.3-0.3,0.5-0.8,0.4-1.3
			C1735.7,244,1735.1,243.3,1734.2,243.3 M1734.1,249.4c-0.2,0-0.4,0-0.6,0.1c-0.6,0.4-0.8,0.7-0.8,1.2c0,0.4,0.2,0.8,0.5,1
			c0.5,0.4,1.1,0.5,1.7,0.5c1.4,0,2-0.8,2-1.5c0-0.5-0.3-0.9-0.8-1.1C1735.4,249.4,1734.7,249.3,1734.1,249.4 M1734.1,252.9
			c-0.7,0.1-1.4-0.1-2-0.6c-0.4-0.4-0.6-0.9-0.6-1.4c0-0.3,0.1-0.5,0.3-0.7c0.4-0.4,0.8-0.7,1.3-1c0,0,0.1,0,0.1-0.1
			c0,0,0-0.1-0.1-0.1c-0.4-0.1-0.8-0.5-0.9-0.9l0,0c0-0.1,0-0.2,0.1-0.2c0.1-0.1,0.2-0.1,0.4-0.2c0.2-0.1,0.4-0.3,0.6-0.4v-0.1l0,0
			c-0.9-0.3-1.5-1.2-1.4-2.1c0-0.7,0.3-1.3,0.9-1.7s1.3-0.6,2-0.7l0,0c0.5,0,1,0.1,1.5,0.3c0.3,0.1,0.6,0.1,0.9,0.1
			c0.4,0,0.7-0.1,1-0.4c0,0.1,0,0.2,0,0.3c0,0.2,0,0.4-0.2,0.6c-0.2,0.2-0.4,0.3-0.6,0.3h-0.1c-0.1,0-0.2,0-0.4-0.1h-0.1v0.1l0,0
			c0,0.2,0.1,0.4,0.1,0.6c0.1,0.8-0.3,1.5-0.9,2c-0.5,0.3-1,0.6-1.6,0.6h-0.2h-0.2l0,0c-0.1,0-0.4,0.2-0.4,0.4s0.1,0.4,0.7,0.5h0.4
			c0.7,0,1.5,0.1,2.2,0.3c0.6,0.2,1,0.8,1,1.5c-0.1,1.2-0.9,2.2-1.9,2.6C1735.5,252.8,1734.9,252.9,1734.1,252.9"/>
		<path class="st5" d="M1730.6,248.6c-0.3,0-0.6-0.1-0.9-0.2c-0.1-0.1-0.1-0.1-0.1-0.2c0-0.5,0-1.9,0-2.8c0-0.6-0.1-1.3-0.4-1.9
			c-0.4-0.5-1-0.8-1.6-0.8c-0.8,0.1-1.5,0.4-2.1,1c0,0-0.1,0.1-0.1,0s0-0.5,0-0.7c0-0.1,0-0.2-0.1-0.3c-0.7,0.3-1.4,0.5-2.1,0.6
			c-0.3,0.1-0.4,0.4-0.1,0.5l0,0c0.3,0.1,0.6,0.2,0.8,0.4c0.1,0.1,0.1,0.3,0.1,0.4c0,1,0,2.6,0,3.5c0,0.3-0.1,0.5-0.4,0.5l0,0
			c-0.2,0.1-0.4,0.1-0.6,0.1c-0.1,0.2-0.1,0.4,0,0.6c0.2,0,1,0,1.6,0c0.9,0,1.4,0,1.6,0c0.1-0.2,0.1-0.4,0.1-0.6
			c-0.2,0-0.4,0-0.6-0.1s-0.3-0.2-0.3-0.5c0-0.7,0-2.3,0-3.3c0-0.2,0-0.4,0.2-0.5c0.4-0.3,0.8-0.5,1.3-0.5c0.3,0,0.7,0.1,0.9,0.3
			c0.3,0.2,0.4,0.5,0.5,0.9c0.1,0.6,0,1.8,0,2.8c0,0.6,0,0.7-0.2,0.8s-0.4,0.1-0.6,0.1c-0.1,0.1-0.1,0.5,0,0.6c0.4,0,0.9,0,1.6,0
			c0.8,0,1.4,0,1.6,0C1730.6,249,1730.6,248.8,1730.6,248.6"/>
		<circle class="st1" cx="1955" cy="206.1" r="69.7"/>
		<path class="st5" d="M1914.6,208.6h-13.1c-0.1,1.8,0.5,3.6,1.8,4.9c1.1,1,2.5,1.5,4,1.5c1.7,0.1,3.3-0.5,4.6-1.6l1.3,2.3
			c-0.7,0.6-1.4,1-2.3,1.3c-1.4,0.5-2.8,0.7-4.3,0.7c-2.2,0-4.3-0.8-5.8-2.3c-1.8-1.8-2.8-4.3-2.7-6.9c-0.1-2.7,0.9-5.3,2.7-7.2
			c1.5-1.6,3.6-2.4,5.8-2.4c2.2-0.1,4.4,0.7,6.1,2.2C1914.6,203.1,1915.3,205.9,1914.6,208.6L1914.6,208.6z M1906.8,201.6
			c-2.7-0.1-5,2-5.2,4.7h10c0-1.2-0.4-2.4-1.2-3.2C1909.5,202,1908.2,201.5,1906.8,201.6L1906.8,201.6z"/>
		<path class="st5" d="M1929.3,217.3l-4.9-6.6l-4.4,6.6h-3.8l6.6-9.3l-6-8.9h3.6l4.1,6.2l4.6-6.2h3.5l-6.6,8.9l7.2,9.3H1929.3z"/>
		<path class="st5" d="M1938.9,216.3v8.1h-3.2v-25.2h3.2v1.5c1.2-1.2,2.8-1.9,4.4-1.8c2.3-0.1,4.5,0.8,6,2.4c1.4,1.6,2.1,3.9,2.1,7
			c0.1,2.4-0.7,4.8-2.2,6.8c-1.6,1.8-3.9,2.8-6.3,2.6c-0.8,0-1.7-0.1-2.5-0.4C1939.9,217.1,1939.3,216.8,1938.9,216.3z
			 M1938.9,203.1v10.6c0.3,0.4,0.8,0.7,1.3,0.9c0.6,0.3,1.3,0.4,1.9,0.4c4,0,6-2.3,6-6.8c0-2.3-0.5-4-1.4-5c-1-1-2.5-1.6-4.6-1.6
			c-0.6,0-1.1,0.2-1.7,0.5C1939.8,202.3,1939.3,202.7,1938.9,203.1L1938.9,203.1z"/>
		<path class="st5" d="M1964.8,202.3c-0.6-0.5-1.4-0.7-2.1-0.7c-1.2,0-2.3,0.6-3,1.6c-0.9,1.1-1.3,2.4-1.3,3.8v10.4h-3.2v-18.1h3.2
			v2.9c0.9-2,3-3.3,5.2-3.2c0.8,0,1.7,0.1,2.5,0.3L1964.8,202.3z"/>
		<path class="st5" d="M1983.7,208.6h-13.1c-0.1,1.8,0.5,3.6,1.7,4.9c1.1,1,2.5,1.6,4,1.5c1.7,0.1,3.3-0.5,4.6-1.6l1.3,2.3
			c-0.7,0.6-1.4,1-2.3,1.3c-1.4,0.5-2.8,0.7-4.3,0.7c-2.2,0-4.3-0.8-5.8-2.3c-1.8-1.8-2.8-4.3-2.7-6.9c-0.1-2.7,0.9-5.3,2.7-7.2
			c1.5-1.6,3.6-2.4,5.8-2.4c2.2-0.1,4.4,0.7,6.1,2.2c1.5,1.5,2.2,3.5,2.1,5.6C1984,207.3,1983.9,208,1983.7,208.6z M1975.9,201.6
			c-1.3,0-2.6,0.5-3.6,1.4c-0.9,0.9-1.5,2-1.6,3.3h10c0.1-1.2-0.4-2.4-1.2-3.3C1978.6,202,1977.2,201.5,1975.9,201.6L1975.9,201.6z"
			/>
		<path class="st5" d="M1986.1,216.3l1.1-3c1.3,1,2.8,1.6,4.3,1.8c2,0,3-0.8,3-2.5c0-1.2-1-2.2-2.9-3.1c-1-0.4-2-1-3-1.5
			c-0.5-0.3-0.9-0.7-1.3-1.2c-0.4-0.4-0.6-0.9-0.9-1.4c-0.2-0.5-0.3-1.1-0.3-1.6c-0.1-1.4,0.5-2.7,1.6-3.5c1.2-0.9,2.7-1.3,4.2-1.2
			c1.7,0.1,3.4,0.5,5,1.2l-0.9,3c-1.1-0.9-2.4-1.5-3.8-1.5c-0.7,0-1.4,0.2-1.9,0.5s-0.8,0.8-0.8,1.4c0,1.2,0.8,2.3,2,2.6l2.3,1.1
			c1.2,0.5,2.2,1.2,3.1,2.2c0.7,0.9,1,2,1,3.1c0.1,1.5-0.6,2.9-1.7,3.8c-1.4,1-3,1.5-4.7,1.4
			C1989.7,217.7,1987.8,217.2,1986.1,216.3z"/>
		<path class="st5" d="M2000.2,216.3l1.1-3c1.3,1,2.8,1.6,4.3,1.8c2,0,3-0.8,3-2.5c0-1.2-1-2.2-2.9-3.1c-1-0.4-2-1-3-1.5
			c-0.5-0.3-0.9-0.7-1.3-1.2c-0.4-0.4-0.6-0.9-0.8-1.4c-0.2-0.5-0.3-1.1-0.3-1.6c-0.1-1.4,0.5-2.7,1.6-3.5c1.2-0.9,2.7-1.3,4.2-1.2
			c1.7,0.1,3.4,0.5,5,1.2l-0.9,3c-1.1-0.9-2.4-1.5-3.8-1.5c-0.7,0-1.4,0.2-1.9,0.5s-0.8,0.8-0.8,1.4c0,1.2,0.8,2.3,2,2.6l2.3,1.1
			c1.2,0.5,2.2,1.2,3.1,2.2c0.7,0.9,1,2,1,3.1c0.1,1.5-0.6,2.9-1.7,3.8c-1.4,1-3,1.5-4.7,1.4
			C2003.7,217.7,2001.8,217.2,2000.2,216.3z"/>
	</g>
</g>
<g>
	<path class="st5" d="M561.2,274.8c-37.9,0-68.7-30.8-68.7-68.7s30.8-68.7,68.7-68.7s68.7,30.8,68.7,68.7S599.1,274.8,561.2,274.8z"
		/>
	<g>
		<path class="st2" d="M561.2,138.4c37.3,0,67.7,30.4,67.7,67.7s-30.4,67.7-67.7,67.7s-67.7-30.4-67.7-67.7S523.9,138.4,561.2,138.4
			 M561.2,136.4c-38.5,0-69.7,31.2-69.7,69.7s31.2,69.7,69.7,69.7s69.7-31.2,69.7-69.7S599.7,136.4,561.2,136.4L561.2,136.4z"/>
	</g>
</g>
<g>
	<path class="st2" d="M601.5,178.5l-36.1-20.9c-2.3-1.3-5.2-1.3-7.5,0l-36.5,20.9c-2.4,1.3-3.9,3.9-4,6.6V227c0.1,2.8,1.6,5.3,4,6.6
		l9.6,5.5c4.6,2.3,6.2,2.3,8.3,2.3c6.8,0,10.7-4.1,10.7-11.3v-41.3c0-0.6-0.3-1.4-0.9-1.4h-4.6c-0.6,0-1.9,0.9-1.9,1.4V230
		c0,3.2-2.9,6.4-8.3,3.7l-10-5.7c-0.4-0.2-0.6-0.6-0.6-1v-41.8c0-0.4,0.5-0.8,0.8-1l36.3-20.9c0.4-0.2,0.8-0.2,1.2,0l35.9,20.9
		c0.3,0.2,0.2,0.6,0.2,1V227c0,0.4,0.2,0.8-0.2,1l-36,20.9c-0.3,0.2-0.7,0.2-1,0l-9.2-5.5c-0.3-0.2-0.6-0.2-0.9-0.1
		c-1.7,1.1-3.5,1.9-5.5,2.5c-0.6,0.2-1.5,0.6,0.3,1.6l12.1,7.1c2.4,1.4,5.3,1.4,7.6,0l35.9-20.9c2.3-1.4,3.6-3.9,3.5-6.6v-41.8
		C605.1,182.5,603.8,179.9,601.5,178.5z M573,220.3c-9.6,0-11.7-2.6-12.4-7.4c-0.1-0.5-0.5-1.1-1-1.1h-4.7c-0.6,0-1,0.7-1,1.3
		c0,6.1,3.3,13.5,19.2,13.5c11.5,0,18.1-4.5,18.1-12.4s-5.3-9.9-16.4-11.4s-12.4-2.2-12.4-4.9c0-2.2,1-5.1,9.3-5.1
		c7.5,0,10.2,1.6,11.3,6.6c0.1,0.5,0.5,0.8,1,0.8h4.7c0.3,0,0.6-0.1,0.8-0.3s0.3-0.5,0.3-0.8c-0.7-8.6-6.5-12.7-18.1-12.7
		c-10.3,0-16.5,4.4-16.5,11.7c0,7.9,6.1,10.1,16,11.1c11.9,1.2,12.8,2.9,12.8,5.2C583.8,218.6,580.6,220.3,573,220.3z"/>
</g>
<g>
	<path class="st5" d="M424.8,138.4c-37.9,0-68.7-30.8-68.7-68.7S386.9,1,424.8,1s68.7,30.8,68.7,68.7S462.7,138.4,424.8,138.4z"/>
	<g>
		<path class="st3" d="M424.8,2c37.3,0,67.7,30.4,67.7,67.7s-30.4,67.7-67.7,67.7s-67.7-30.4-67.7-67.7S387.5,2,424.8,2 M424.8,0
			c-38.5,0-69.7,31.2-69.7,69.7s31.2,69.7,69.7,69.7s69.7-31.2,69.7-69.7S463.3,0,424.8,0L424.8,0z"/>
	</g>
</g>
<g>
	<path class="st3" d="M384.9,41.4l39.4-14l40.4,13.8l-6.5,52.1L424.3,112l-33.4-18.5L384.9,41.4z"/>
	<path class="st4" d="M464.7,41.2l-40.4-13.8V112l33.9-18.7L464.7,41.2L464.7,41.2z"/>
	<path class="st5" d="M424.3,37.3l-24.5,54.6l9.2-0.2l4.9-12.3h22l5.4,12.5l8.8,0.2L424.3,37.3z M424.4,54.8l8.3,17.3h-15.6
		L424.4,54.8z"/>
</g>
<g>
	<path class="st5" d="M424.8,411.2c-37.9,0-68.7-30.8-68.7-68.7s30.8-68.7,68.7-68.7s68.7,30.8,68.7,68.7S462.7,411.2,424.8,411.2z"
		/>
	<g>
		<path class="st6" d="M424.8,274.8c37.3,0,67.7,30.4,67.7,67.7s-30.4,67.7-67.7,67.7s-67.7-30.4-67.7-67.7S387.5,274.8,424.8,274.8
			 M424.8,272.8c-38.5,0-69.7,31.2-69.7,69.7s31.2,69.7,69.7,69.7s69.7-31.2,69.7-69.7S463.3,272.8,424.8,272.8L424.8,272.8z"/>
	</g>
</g>
<g>
	<circle class="st6" cx="424.8" cy="342.5" r="8.3"/>
	<path class="st6" d="M456.4,328.7c-1.6-0.6-3.3-1.2-5-1.7c0.4-1.8,0.8-3.5,1.1-5.2c1.5-9.6-0.1-16.4-4.8-19.1
		c-1.4-0.8-3-1.2-4.7-1.2c-5.1,0-11.6,3.8-18.2,10.1c-6.6-6.4-13.1-10.1-18.2-10.1c-1.6,0-3.2,0.4-4.7,1.2
		c-4.7,2.7-6.4,9.5-4.8,19.1c0.3,1.7,0.6,3.4,1.1,5.2c-1.7,0.5-3.4,1-5,1.7c-9.1,3.5-14.1,8.3-14.1,13.7s5,10.2,14.1,13.7
		c1.6,0.6,3.3,1.2,5,1.7c-0.4,1.8-0.8,3.5-1.1,5.2c-1.5,9.6,0.1,16.4,4.8,19.1c1.4,0.8,3,1.2,4.7,1.2c5.2,0,11.7-3.8,18.2-10.2
		c6.6,6.4,13.1,10.2,18.2,10.2c1.6,0,3.3-0.4,4.7-1.2c4.7-2.7,6.4-9.5,4.8-19.1c-0.3-1.7-0.7-3.4-1.1-5.2c1.7-0.5,3.4-1,5-1.7
		c9.1-3.5,14.1-8.3,14.1-13.7S465.6,332.2,456.4,328.7z M445.6,306.4c3,1.8,4,7.2,2.8,14.8c-0.2,1.6-0.6,3.2-1,4.8
		c-4-0.9-8-1.5-12.1-1.8c-2.3-3.3-4.9-6.5-7.6-9.5c5.4-5.3,10.9-9,15.3-9C444,305.8,444.9,306,445.6,306.4z M437.4,349.8
		c-1.3,2.3-2.9,4.7-4.5,7c-2.7,0.2-5.4,0.3-8.2,0.3s-5.5-0.1-8.2-0.3c-1.6-2.3-3.1-4.7-4.4-7c-1.4-2.4-2.7-4.9-3.9-7.3
		c1.2-2.4,2.5-4.9,3.9-7.3s2.8-4.7,4.5-7c2.7-0.2,5.4-0.3,8.2-0.3s5.5,0.1,8.2,0.3c1.6,2.3,3.1,4.7,4.4,7c1.4,2.4,2.7,4.9,3.9,7.3
		C440.1,344.9,438.8,347.3,437.4,349.8z M443.5,347.3c1.1,2.6,2,5,2.8,7.5c-2.6,0.6-5.2,1.1-7.9,1.4c0.9-1.4,1.8-2.9,2.6-4.4
		S442.7,348.8,443.5,347.3z M424.8,367.1c-1.8-1.9-3.4-4-5-6.1c1.7,0.1,3.4,0.1,5,0.1s3.4-0.1,5-0.1
		C428.2,363.2,426.6,365.2,424.8,367.1z M411.2,356.2c-2.8-0.4-5.4-0.8-7.9-1.4c0.8-2.4,1.7-5,2.8-7.5c0.8,1.5,1.6,3,2.5,4.5
		S410.4,354.7,411.2,356.2z M406.1,337.5c-1.1-2.5-2-5-2.8-7.5c2.5-0.6,5.1-1,7.9-1.4c-0.9,1.4-1.8,2.9-2.6,4.4
		S406.9,336.1,406.1,337.5L406.1,337.5z M424.8,317.8c1.8,1.9,3.4,4,5,6.1c-1.7-0.1-3.4-0.1-5-0.1s-3.4,0.1-5,0.1
		C421.4,321.7,423,319.7,424.8,317.8L424.8,317.8z M441,333.1l-2.6-4.4c2.7,0.3,5.3,0.8,7.9,1.4c-0.8,2.4-1.7,5-2.8,7.5
		C442.7,336.1,441.9,334.6,441,333.1z M401.2,321.3c-1.2-7.7-0.2-13.1,2.8-14.8c0.8-0.4,1.7-0.7,2.6-0.7c4.4,0,9.9,3.6,15.3,9
		c-2.7,3-5.3,6.2-7.6,9.5c-4.1,0.4-8.1,1-12,1.8C401.8,324.4,401.5,322.8,401.2,321.3L401.2,321.3z M383.2,342.5
		c0-3.4,4.2-7.1,11.5-9.8c1.5-0.6,3.1-1.1,4.7-1.5c1.2,3.9,2.7,7.7,4.4,11.4c-1.7,3.7-3.2,7.5-4.4,11.3
		C389.2,350.9,383.2,346.5,383.2,342.5L383.2,342.5z M404,378.5c-3-1.8-4-7.2-2.8-14.8c0.2-1.6,0.6-3.2,1-4.8c4,0.9,8,1.5,12,1.8
		c2.3,3.3,4.9,6.5,7.6,9.5c-5.4,5.3-10.9,9-15.3,9C405.7,379.1,404.8,378.9,404,378.5L404,378.5z M448.4,363.6
		c1.2,7.7,0.2,13.1-2.8,14.8c-0.8,0.4-1.7,0.7-2.5,0.6c-4.4,0-9.9-3.6-15.3-9c2.7-3,5.3-6.2,7.6-9.5c4.1-0.4,8.1-1,12.1-1.8
		C447.8,360.5,448.1,362.1,448.4,363.6L448.4,363.6z M455,352.2c-1.5,0.6-3.1,1.1-4.7,1.5c-1.2-3.9-2.7-7.7-4.4-11.4
		c1.7-3.7,3.2-7.5,4.4-11.3c10.1,2.9,16.1,7.3,16.1,11.4C466.4,345.9,462.2,349.5,455,352.2z"/>
</g>
<g>
	<ellipse class="st5" cx="69.7" cy="206.1" rx="68.7" ry="68.7"/>
	<g>
		<path class="st7" d="M69.7,138.4c37.3,0,67.7,30.4,67.7,67.7s-30.4,67.7-67.7,67.7S2,243.4,2,206.1S32.4,138.4,69.7,138.4
			 M69.7,136.4C31.2,136.4,0,167.6,0,206.1s31.2,69.7,69.7,69.7s69.7-31.2,69.7-69.7S108.2,136.4,69.7,136.4L69.7,136.4z"/>
	</g>
</g>
<path class="st7" d="M85.3,187.9c-3.8-16.8-11.7-21.2-13.7-24.4c-0.8-1.4-1.6-2.8-2.2-4.3c0.1,1.4-0.5,2.7-1.6,3.6
	c-2.5,2.3-13.3,11.1-14.2,30.1c-0.8,17.8,13.1,28.7,14.9,29.9c1.4,0.5,2.9,0.3,4-0.6C79.1,217.5,88.3,205.2,85.3,187.9"/>
<path class="st8" d="M69.9,213.3c-0.3,4.4-0.6,6.9-1.5,9.5c0,0,0.6,4.2,1,8.6h1.4c0.3-3.1,0.9-6.2,1.6-9.3
	C70.6,221.1,70,217.1,69.9,213.3z"/>
<path class="st9" d="M72.5,222.1L72.5,222.1c-1.9-0.9-2.4-5-2.5-8.8c0.5-6.3,0.6-12.7,0.4-19c-0.1-3.3,0-30.7-0.8-34.7
	c0.6,1.4,1.2,2.7,2,3.9c2,3.2,9.9,7.6,13.7,24.4C88.3,205.2,79.2,217.4,72.5,222.1z"/>
<g>
	<path class="st10" d="M102.3,249.1c-0.7,0-1.2-0.6-1.2-1.2s0.6-1.2,1.2-1.2c0.7,0,1.2,0.5,1.2,1.2
		C103.5,248.5,103,249.1,102.3,249.1L102.3,249.1L102.3,249.1 M102.3,246.8c-0.6,0-1.1,0.5-1.1,1.1s0.5,1.1,1.1,1.1s1.1-0.5,1.1-1.1
		l0,0l0,0C103.4,247.3,102.9,246.8,102.3,246.8L102.3,246.8 M102.6,248.6l-0.3-0.7H102v0.7h-0.2v-1.5h0.4c0.3,0,0.5,0.1,0.5,0.4
		c0,0.2-0.1,0.4-0.3,0.4l0.3,0.7L102.6,248.6z M102.1,247.8h0.3c0.2,0,0.3-0.1,0.3-0.3s-0.1-0.3-0.3-0.3H102L102.1,247.8z"/>
	<path class="st10" d="M84.3,248c0.5,0.3,1,0.4,1.6,0.4c0.8,0,1.6-0.2,2.2-0.8c0.9-0.9,1.3-2.1,1.2-3.3c0.1-1.4-0.6-2.8-1.8-3.6
		c-0.8-0.4-1.7-0.6-2.6-0.6c-0.3,0-0.5,0-0.8,0.1c-0.1,0.1-0.1,0.1-0.1,0.2c0,0.3,0,2.4,0,3.6s0,3.1,0,3.3
		C84,247.6,84.1,247.8,84.3,248 M81.2,239.4c0.3,0,1.3,0.1,1.7,0.1c0.9,0,1.5-0.1,3.1-0.1c1.2-0.1,2.4,0.3,3.3,1.1
		c1,0.9,1.6,2.2,1.5,3.5c0.1,1.6-0.6,3.1-1.9,4c-1.2,0.8-2.5,1.2-3.9,1.1h-3.9l0,0c-0.1-0.1,0.1-0.6,0.2-0.6c0.2,0,0.4-0.1,0.6-0.1
		c0.3-0.1,0.3-0.3,0.4-0.8c0.1-1,0-2.1,0-3.4c0-0.9,0-2.7,0-3.3s-0.2-0.6-0.7-0.7c-0.3-0.1-0.6-0.1-0.9-0.1
		C80.9,240,81.1,239.6,81.2,239.4"/>
	<path class="st10" d="M94.8,240.2c-0.1,0-0.1,0.2-0.1,0.2c0,0.6,0,2,0,3c0,0,0,0.1,0.1,0.1c0.2,0,0.7,0,1.1,0s0.8,0,1.1-0.2
		c0.5-0.3,0.8-0.8,0.7-1.4c0-1.3-0.9-1.8-2.3-1.8C95.2,240.1,95,240.1,94.8,240.2 M98.3,246.3c0-1.4-1-2.1-2.8-2.1
		c-0.3,0-0.5,0-0.8,0l-0.1,0.1c0,1,0,2.5,0,3.1c0,0.3,0.2,0.6,0.4,0.7c0.4,0.1,0.8,0.2,1.2,0.2c1,0.1,1.9-0.7,2-1.7
		C98.3,246.5,98.3,246.4,98.3,246.3 M92,239.4c0.1,0,0.6,0.1,1.6,0.1s1.8,0,2.8,0c1.2,0,2.9,0.4,2.9,2.2c-0.1,0.9-0.6,1.6-1.4,1.9
		c0,0,0,0,0,0.1c1.2,0.2,2,1.1,2.1,2.3c0,1.2-0.8,2.3-2,2.7c-0.8,0.3-1.7,0.5-2.6,0.4c-0.7,0-2.6-0.1-3.6-0.1
		c-0.1,0,0.1-0.5,0.2-0.6c0.2,0,0.5,0,0.7-0.1c0.4-0.1,0.4-0.2,0.5-0.8s0-2.2,0-3.4c0-1.7,0-2.8,0-3.3s-0.2-0.6-0.5-0.6
		s-0.6-0.1-0.9-0.1C91.6,239.9,91.9,239.5,92,239.4"/>
	<path class="st10" d="M36,249.1c0-0.1,0-0.2,0-0.3s0-0.1,0-0.2c0.2,0,0.4-0.1,0.6-0.1c0.3-0.1,0.4-0.2,0.4-0.6c0-0.8,0-2.4,0-3.5
		l0,0c0-0.1,0-0.3-0.2-0.4c-0.3-0.2-0.5-0.3-0.8-0.4c-0.1,0-0.2-0.1-0.2-0.2s0.1-0.2,0.2-0.2c0.7-0.1,1.4-0.3,2.1-0.5
		c0,0.1,0.1,0.1,0.1,0.2v0.1c0,0.2,0,0.3,0,0.5s0.1,0.1,0.1,0.1h0.1c0.6-0.5,1.3-0.8,2.1-0.9c0.7,0,1.3,0.4,1.6,1h0.1h0.1
		c0.6-0.5,1.4-0.9,2.2-1c1.3,0,2,1,2,2.6c0,0.5,0,1,0,1.6v1.2c0,0.1,0.1,0.3,0.2,0.3c0.3,0.1,0.5,0.2,0.8,0.2l0,0
		c0,0.2,0,0.4-0.1,0.5h-0.3c-0.3,0-0.6,0-1,0c-0.8,0-1.3,0-1.7,0.1c0-0.2,0-0.3,0-0.5c0.2,0,0.3-0.1,0.5-0.1
		c0.3-0.1,0.3-0.2,0.4-0.6s0.1-2.5,0-3c-0.1-0.7-0.7-1.2-1.4-1.2c-0.5,0-1,0.2-1.4,0.5l-0.1,0.1l0,0c0.1,0.4,0.1,0.8,0.1,1.1
		s0,0.6,0,0.9c0,0.6,0,1.2,0,1.6c0,0.2,0.1,0.4,0.3,0.4H43c0.1,0,0.3,0.1,0.4,0.1c0,0.1,0,0.3,0,0.4v0.1c-0.5,0-1,0-1.7,0h-0.9h-0.6
		c0-0.1-0.1-0.2,0-0.3c0-0.1,0-0.2,0-0.2h0.2c0.1,0,0.3-0.1,0.4-0.1c0.2-0.1,0.3-0.2,0.3-0.5c0.1-1,0.1-2.1,0-3.1
		c0-0.7-0.6-1.2-1.3-1.2c-0.5,0-1,0.2-1.4,0.5c-0.1,0.1-0.1,0.2-0.1,0.3v0.8c0,1,0,2.2,0,2.8c0,0.2,0.2,0.4,0.4,0.4l0.3,0.1h0.2
		c0,0.2,0,0.4,0,0.5h-0.5c-0.3,0-0.7,0-1.1,0s-0.8,0-1.1,0L36,249.1"/>
	<path class="st10" d="M51.7,243.3c-0.3,0-0.5,0.1-0.7,0.2c-0.6,0.5-0.9,1.2-0.8,2c0,1.8,0.9,3.1,2.2,3.1c0.4,0,0.7-0.1,1-0.3
		c0.5-0.5,0.7-1.2,0.6-1.9C53.9,244.6,53,243.4,51.7,243.3 M52,249.3c-1.7,0.1-3.1-1.1-3.2-2.8c0-0.2,0-0.4,0-0.5c0-1,0.5-2,1.4-2.6
		c0.6-0.4,1.4-0.6,2.1-0.6c1.7,0,3,1.3,3,3v0.1c0.1,1.1-0.5,2.2-1.4,2.9C53.3,249,52.6,249.2,52,249.3"/>
	<path class="st10" d="M75.5,243.3c-0.3,0-0.5,0.1-0.7,0.2c-0.6,0.5-0.9,1.2-0.8,2c0,1.8,0.9,3.1,2.2,3.1c0.4,0,0.7-0.1,1-0.3
		c0.5-0.5,0.7-1.2,0.6-1.9C77.8,244.6,76.9,243.4,75.5,243.3 M75.8,249.3c-1.7,0.1-3.1-1.2-3.2-2.8c0-0.2,0-0.3,0-0.5
		c0-1.1,0.5-2.1,1.3-2.6c0.6-0.4,1.4-0.6,2.1-0.6c1.6,0,3,1.3,3,2.9c0,0.1,0,0.2,0,0.2c0.1,1.1-0.5,2.2-1.4,2.9
		C77.1,249,76.4,249.2,75.8,249.3"/>
	<path class="st10" d="M67.7,243.3c-0.7,0-1.2,0.6-1.2,1.4s0.4,1.9,1.5,1.9c0.3,0,0.5-0.1,0.7-0.3c0.3-0.3,0.5-0.8,0.4-1.3
		C69.2,244,68.6,243.3,67.7,243.3 M67.6,249.4c-0.2,0-0.4,0-0.6,0.1c-0.6,0.4-0.8,0.7-0.8,1.2c0,0.4,0.2,0.8,0.5,1
		c0.5,0.4,1.1,0.5,1.7,0.5c1.4,0,2-0.8,2-1.5c0-0.5-0.3-0.9-0.8-1.1C68.8,249.4,68.2,249.3,67.6,249.4 M67.6,252.9
		c-0.7,0.1-1.4-0.1-2-0.6c-0.4-0.4-0.6-0.9-0.6-1.4c0-0.3,0.1-0.5,0.3-0.7c0.4-0.4,0.8-0.7,1.3-1c0,0,0.1,0,0.1-0.1
		c0,0,0-0.1-0.1-0.1c-0.4-0.1-0.8-0.5-0.9-0.9l0,0c0-0.1,0-0.2,0.1-0.2s0.2-0.1,0.4-0.2c0.2-0.1,0.4-0.3,0.6-0.4v-0.1l0,0
		c-0.9-0.3-1.5-1.2-1.4-2.1c0-0.7,0.3-1.3,0.9-1.7s1.3-0.6,2-0.7l0,0c0.5,0,1,0.1,1.5,0.3c0.3,0.1,0.6,0.1,0.9,0.1
		c0.4,0,0.7-0.1,1-0.4c0,0.1,0,0.2,0,0.3c0,0.2,0,0.4-0.2,0.6c-0.2,0.2-0.4,0.3-0.6,0.3h-0.1c-0.1,0-0.2,0-0.4-0.1h-0.1v0.1l0,0
		c0,0.2,0.1,0.4,0.1,0.6c0.1,0.8-0.3,1.5-0.9,2c-0.5,0.3-1,0.6-1.6,0.6h-0.2h-0.2l0,0c-0.1,0-0.4,0.2-0.4,0.4s0.1,0.4,0.7,0.5h0.4
		c0.7,0,1.5,0.1,2.2,0.3c0.6,0.2,1,0.8,1,1.5c-0.1,1.2-0.9,2.2-1.9,2.6C68.9,252.8,68.3,252.9,67.6,252.9"/>
	<path class="st10" d="M64.1,248.6c-0.3,0-0.6-0.1-0.9-0.2c-0.1-0.1-0.1-0.1-0.1-0.2c0-0.5,0-1.9,0-2.8c0-0.6-0.1-1.3-0.4-1.9
		c-0.4-0.5-1-0.8-1.6-0.8c-0.8,0.1-1.5,0.4-2.1,1c0,0-0.1,0.1-0.1,0s0-0.5,0-0.7c0-0.1,0-0.2-0.1-0.3c-0.7,0.3-1.4,0.5-2.1,0.6
		c-0.3,0.1-0.4,0.4-0.1,0.5l0,0c0.3,0.1,0.6,0.2,0.8,0.4c0.1,0.1,0.1,0.3,0.1,0.4c0,1,0,2.6,0,3.5c0,0.3-0.1,0.5-0.4,0.5l0,0
		c-0.2,0.1-0.4,0.1-0.6,0.1c-0.1,0.2-0.1,0.4,0,0.6c0.2,0,1,0,1.6,0c0.9,0,1.4,0,1.6,0c0.1-0.2,0.1-0.4,0.1-0.6
		c-0.2,0-0.4,0-0.6-0.1c-0.2-0.1-0.3-0.2-0.3-0.5c0-0.7,0-2.3,0-3.3c0-0.2,0-0.4,0.2-0.5c0.4-0.3,0.8-0.5,1.3-0.5
		c0.3,0,0.7,0.1,0.9,0.3c0.3,0.2,0.4,0.5,0.5,0.9c0.1,0.6,0,1.8,0,2.8c0,0.6,0,0.7-0.2,0.8s-0.4,0.1-0.6,0.1c-0.1,0.1-0.1,0.5,0,0.6
		c0.4,0,0.9,0,1.6,0c0.8,0,1.4,0,1.6,0C64.1,249,64.1,248.8,64.1,248.6"/>
</g>
<g>
	<g>
		<path class="st5" d="M288.5,274.3c-3.7,0-7.4-0.3-11-0.9c-18-2.9-33.8-12.7-44.4-27.4c-10.7-14.8-14.9-32.8-12-50.8
			c2.6-16.1,10.9-30.7,23.3-41.2c12.3-10.4,27.9-16.1,43.9-16.1c3.7,0,7.4,0.3,11,0.9c37.1,6,62.4,41.1,56.4,78.2
			c-2.6,16.1-10.9,30.7-23.3,41.2C320.1,268.6,304.6,274.3,288.5,274.3z"/>
		<g>
			<path class="st11" d="M288.4,137.4v1h0c3.6,0,7.3,0.3,10.9,0.9c17.9,2.9,33.5,12.6,44.1,27.2c10.6,14.7,14.8,32.6,11.9,50.4
				c-2.6,16-10.8,30.5-23.2,40.9c-12.2,10.3-27.7,16-43.6,16c-3.6,0-7.3-0.3-10.9-0.9c-17.9-2.9-33.5-12.6-44.1-27.2
				c-10.6-14.7-14.8-32.6-11.9-50.4c2.6-16,10.8-30.5,23.2-40.9c12.2-10.3,27.7-16,43.6-16L288.4,137.4 M288.4,137.4
				c-33.1,0-62.3,24-67.7,57.7c-6.1,37.5,19.4,72.7,56.8,78.8c3.7,0.6,7.4,0.9,11.1,0.9c33.1,0,62.3-24,67.7-57.7
				c6.1-37.5-19.4-72.7-56.8-78.8C295.7,137.7,292,137.4,288.4,137.4L288.4,137.4z"/>
		</g>
	</g>
	<path class="st11" d="M288.4,138.4c37.3,0,67.7,30.4,67.7,67.7s-30.4,67.7-67.7,67.7s-67.7-30.4-67.7-67.7S251.1,138.4,288.4,138.4
		 M288.4,136.4c-38.5,0-69.7,31.2-69.7,69.7s31.2,69.7,69.7,69.7s69.7-31.2,69.7-69.7S326.9,136.4,288.4,136.4L288.4,136.4z"/>
</g>
<g>
	<path class="st11" d="M248.1,208.6H235c-0.1,1.8,0.5,3.6,1.8,4.9c1.1,1,2.5,1.5,3.9,1.5c1.7,0.1,3.3-0.5,4.6-1.6l1.4,2.3
		c-0.7,0.6-1.4,1-2.3,1.3c-1.4,0.5-2.8,0.7-4.3,0.7c-2.2,0-4.3-0.8-5.8-2.3c-1.8-1.8-2.8-4.3-2.7-6.9c-0.1-2.7,0.9-5.3,2.7-7.2
		c1.5-1.6,3.6-2.4,5.8-2.4c2.2-0.1,4.4,0.7,6.1,2.2C248,203.1,248.7,205.9,248.1,208.6L248.1,208.6z M240.3,201.6
		c-2.7-0.1-5,2-5.2,4.7h10c0-1.2-0.4-2.4-1.2-3.2C243,202,241.6,201.5,240.3,201.6L240.3,201.6z"/>
	<path class="st11" d="M262.8,217.3l-4.9-6.6l-4.4,6.6h-3.8l6.6-9.3l-6-8.9h3.6l4.1,6.2l4.5-6.2h3.5l-6.6,8.9l7.2,9.3H262.8z"/>
	<path class="st11" d="M272.3,216.3v8.1h-3.2v-25.2h3.2v1.5c1.2-1.2,2.8-1.9,4.4-1.8c2.3-0.1,4.5,0.8,6,2.4c1.4,1.6,2.1,3.9,2.1,7
		c0.1,2.4-0.7,4.8-2.2,6.8c-1.6,1.8-3.9,2.8-6.3,2.6c-0.8,0-1.7-0.1-2.5-0.4C273.3,217.1,272.8,216.8,272.3,216.3z M272.3,203.1
		v10.6c0.3,0.4,0.8,0.7,1.3,0.9c0.6,0.3,1.3,0.4,1.9,0.4c4,0,6-2.3,6-6.8c0-2.3-0.5-4-1.4-5c-1-1-2.5-1.6-4.5-1.6
		c-0.6,0-1.1,0.2-1.7,0.5C273.3,202.3,272.8,202.7,272.3,203.1L272.3,203.1z"/>
	<path class="st11" d="M298.2,202.3c-0.6-0.5-1.4-0.7-2.1-0.7c-1.2,0-2.3,0.6-3,1.6c-0.9,1.1-1.3,2.4-1.3,3.8v10.4h-3.2v-18.1h3.2
		v2.9c0.9-2,3-3.3,5.2-3.2c0.8,0,1.7,0.1,2.5,0.3L298.2,202.3z"/>
	<path class="st11" d="M317.1,208.6H304c-0.1,1.8,0.5,3.6,1.7,4.9c1.1,1,2.5,1.6,4,1.5c1.7,0.1,3.3-0.5,4.6-1.6l1.4,2.3
		c-0.7,0.6-1.4,1-2.3,1.3c-1.4,0.5-2.8,0.7-4.3,0.7c-2.2,0-4.3-0.8-5.8-2.3c-1.8-1.8-2.8-4.3-2.7-6.9c-0.1-2.7,0.9-5.3,2.7-7.2
		c1.5-1.6,3.6-2.4,5.8-2.4c2.2-0.1,4.4,0.7,6.1,2.2c1.5,1.5,2.2,3.5,2.1,5.6C317.4,207.3,317.3,208,317.1,208.6z M309.3,201.6
		c-1.3,0-2.6,0.5-3.6,1.4c-0.9,0.9-1.5,2-1.6,3.3h10c0.1-1.2-0.4-2.4-1.2-3.3C312,202,310.7,201.5,309.3,201.6L309.3,201.6z"/>
	<path class="st11" d="M319.6,216.3l1.1-3c1.3,1,2.8,1.6,4.3,1.8c2,0,3-0.8,3-2.5c0-1.2-1-2.2-2.9-3.1c-1-0.4-2-1-3-1.5
		c-0.5-0.3-0.9-0.7-1.3-1.2c-0.4-0.4-0.6-0.9-0.9-1.4c-0.2-0.5-0.3-1.1-0.3-1.6c-0.1-1.4,0.5-2.7,1.6-3.5c1.2-0.9,2.7-1.3,4.2-1.2
		c1.7,0.1,3.4,0.5,5,1.2l-0.9,3c-1.1-0.9-2.4-1.5-3.8-1.5c-0.7,0-1.4,0.2-1.9,0.5s-0.8,0.8-0.8,1.4c0,1.2,0.8,2.3,2,2.6l2.3,1.1
		c1.2,0.5,2.2,1.2,3.1,2.2c0.7,0.9,1,2,1,3.1c0.1,1.5-0.6,2.9-1.7,3.8c-1.4,1-3,1.5-4.7,1.4C323.1,217.7,321.2,217.2,319.6,216.3z"
		/>
	<path class="st11" d="M333.6,216.3l1.1-3c1.3,1,2.8,1.6,4.3,1.8c2,0,3-0.8,3-2.5c0-1.2-1-2.2-2.9-3.1c-1-0.4-2-1-3-1.5
		c-0.5-0.3-0.9-0.7-1.3-1.2c-0.4-0.4-0.6-0.9-0.8-1.4c-0.2-0.5-0.3-1.1-0.3-1.6c-0.1-1.4,0.5-2.7,1.6-3.5c1.2-0.9,2.7-1.3,4.2-1.2
		c1.7,0.1,3.4,0.5,5,1.2l-0.9,3c-1.1-0.9-2.4-1.5-3.8-1.5c-0.7,0-1.4,0.2-1.9,0.5s-0.8,0.8-0.8,1.4c0,1.2,0.8,2.3,2,2.6l2.3,1.1
		c1.2,0.5,2.2,1.2,3.1,2.2c0.7,0.9,1,2,1,3.1c0.1,1.5-0.6,2.9-1.7,3.8c-1.4,1-3,1.5-4.7,1.4C337.1,217.7,335.3,217.2,333.6,216.3z"
		/>
</g>
</svg>
