<svg xmlns="http://www.w3.org/2000/svg" viewBox="0 0 100 85.6"><defs><style>.cls-1{fill:#ffc200;}</style></defs><g id="Layer_2" data-name="Layer 2"><g id="Layer_1-2" data-name="Layer 1"><path class="cls-1" d="M100,38.91a61.77,61.77,0,0,1-1.17,6.21c-4.06,14-13.29,22.6-27.53,25.73a8.16,8.16,0,0,1-3.06-.35c-.86-.16-1.69-.44-2.59-.69l-.44.86a37.39,37.39,0,0,1-8.72,11.42,12.52,12.52,0,0,1-7,3.14C33.48,87.45,18.9,79.59,12,65,8.17,56.78,4.36,48.58.48,40.42a3.66,3.66,0,0,1,.44-4.25,41.72,41.72,0,0,1,9.64-8.78A87.69,87.69,0,0,1,40.7,14c.19,0,.36-.14.61-.23,0-1.78,0-3.57,0-5.36a3.29,3.29,0,0,1,1.9-3.23A39.53,39.53,0,0,1,54.83,1.4,89,89,0,0,1,78.56.34,59.79,59.79,0,0,1,94.39,3.55c1,.35,1.92.8,2.87,1.22A5,5,0,0,1,100,7.24ZM62.79,56.55c0-4.72-.48-8.27-1.95-11.53C57,36.46,53,28,49,19.46a1.08,1.08,0,0,0-.9-.45c-2.13.25-4.28.43-6.38.88A79.09,79.09,0,0,0,19.56,28.7,51.82,51.82,0,0,0,7,38.16a1.19,1.19,0,0,0-.25,1.59Q12,51,17.24,62.18C22.88,74.23,34,80.7,47.24,79.53c1.58-.14,3.24-.16,4.6-1.3C59,72.29,62.55,64.65,62.79,56.55Zm4.8,7.62c1.54.46,2.92,1,4.53.52a29.31,29.31,0,0,0,22-28.23c.08-8.63,0-17.27,0-25.9a.92.92,0,0,0-.73-1.06c-2.94-.81-5.83-1.86-8.82-2.41A81.89,81.89,0,0,0,59,6.68,42.5,42.5,0,0,0,48,9.5c-.3.12-.68.46-.71.74-.09.92,0,1.86,0,2.88,1.14,0,2.18,0,3.22,0a3.21,3.21,0,0,1,3.06,2c.87,1.93,1.81,3.82,2.68,5.75A5.31,5.31,0,0,0,58,23.27c2,1.36,3,1.45,4.88,0a2.94,2.94,0,0,1,3.9,4.4,8.35,8.35,0,0,1-4,2.28c-.68.16-1.38.27-2.14.41.17.37.29.67.43,1,1.43,3.06,2.9,6.11,4.29,9.19.35.78.65,1.16,1.56.81a7.56,7.56,0,0,1,2-.34A16.57,16.57,0,0,1,82.54,45.8a2.76,2.76,0,0,1,.69,3,2.82,2.82,0,0,1-2.32,2A3.27,3.27,0,0,1,78,49.67a10.82,10.82,0,0,0-10.31-2.51A35.46,35.46,0,0,1,67.59,64.17Z"/><path class="cls-1" d="M37.63,67.72c-1.81-.38-3.64-.67-5.41-1.18a2.87,2.87,0,0,1-2-3.78A2.91,2.91,0,0,1,34.06,61a11,11,0,0,0,14-6.57,2.88,2.88,0,0,1,3.9-1.72,3,3,0,0,1,1.51,4A17.37,17.37,0,0,1,37.63,67.72Z"/><path class="cls-1" d="M49.18,41.31a5.85,5.85,0,0,1-.8-.13c-2-.49-3.2.07-4.11,2A2.91,2.91,0,0,1,41.34,45a2.74,2.74,0,0,1-2.57-2,3.5,3.5,0,0,1,0-1.9,9,9,0,0,1,11.47-5.45,2.94,2.94,0,0,1-1.09,5.72Z"/><path class="cls-1" d="M27.74,44.1c1,.22,2,.35,2.93.65a2.9,2.9,0,0,1,2,3.53,3,3,0,0,1-3.55,2.14c-2.55-.51-3.28-.17-4.46,2.08a2.94,2.94,0,0,1-5.39-2.33A9.37,9.37,0,0,1,27.74,44.1Z"/><path class="cls-1" d="M82.05,30.25a9,9,0,0,1-6.25-2.54,2.92,2.92,0,0,1-.28-4.12,3,3,0,0,1,4.2-.29c1.72,1.39,3,1.39,4.69,0a2.95,2.95,0,0,1,4,4.36A9,9,0,0,1,82.05,30.25Z"/></g></g></svg>