<?xml version="1.0" encoding="utf-8"?>
<!-- Generator: Adobe Illustrator 25.4.1, SVG Export Plug-In . SVG Version: 6.00 Build 0)  -->
<svg version="1.1" id="Layer_1" xmlns="http://www.w3.org/2000/svg" xmlns:xlink="http://www.w3.org/1999/xlink" x="0px" y="0px"
	 viewBox="0 0 300.9 328.6" style="enable-background:new 0 0 300.9 328.6;" xml:space="preserve">
<style type="text/css">
	.st0{fill:#5500A3;}
	.st1{fill:none;stroke:#5500A3;stroke-width:0.75;stroke-miterlimit:10;stroke-dasharray:4.0293,4.0293;}
	.st2{fill:none;stroke:#5500A3;stroke-width:0.75;stroke-miterlimit:10;stroke-dasharray:3.997,3.997;}
	.st3{fill:#FFFFFF;}
	.st4{fill:none;stroke:#5500A3;stroke-width:2;stroke-miterlimit:10;stroke-dasharray:4;}
</style>
<g>
	<g>
		<g>
			<path class="st0" d="M173.8,78.6c0.9,0,2.9,0.8,5.3,1.9c1.3,0.6,2.8,1.2,4.5,1.9c4.6,1.9,7.9,3.2,8.5,4.3c0.6,1.2-0.8,5.3-2,8.9
				c-2.1,6.3-3.3,14.3,6.2,19.6c0.1,0,0.1,0.1,0.2,0.1c3.3,6,7.8,8.9,13.8,8.9c3,0,6.3-0.7,10.7-2.3c1.9-0.7,3.9-1.4,5.1-1.4
				c0.7,0,1.2,0.4,3.2,5.3c1,2.4,1.8,4.4,2.5,6.1c1.5,3.6,2.9,6.8,2.6,7.6c-0.3,0.9-3.3,2.5-6.8,4.4c-1.6,0.9-3.4,1.8-5.5,3
				c-3.5,2-6.5,4.6-5.5,10.8c0.6,3.8,0.6,7.7,0,11.4c-0.8,5.3,0.8,8.6,5.6,11.3c1.8,1,3.3,1.9,4.7,2.6c3.8,2.1,7,3.8,7.4,4.8
				c0.3,0.8-1,3.8-2.4,7c-0.8,1.8-1.8,4.1-2.9,6.9c-0.6,1.6-1.8,3.2-3,4.7c-0.1,0.2-0.3,0.4-0.4,0.5c-1.2-0.3-2.4-0.7-3.5-1
				c-4-1.2-7.4-2.2-10.9-2.8c-0.4-0.1-0.8-0.1-1.2-0.1c-3.3,0-6.4,1.9-7.6,2.7c-1.4,1-2.4,2.3-3.3,3.4c-0.7,0.9-1.4,1.8-2.1,2.2
				c-10.3,6.2-9,14.7-6.3,22.3c0.8,2.3,2.1,6.1,1.7,6.9c-0.4,0.9-3.5,2.1-7,3.6l-0.1,0.1c-1.6,0.7-3,1.3-4.2,1.8
				c-3.5,1.5-6.1,2.6-7.3,2.6c-0.9,0-2.4-2.7-4.6-6.7c-0.7-1.2-1.4-2.6-2.3-4.2c-2-3.5-4.5-7.3-9.8-7.3c-1.1,0-2.2,0.2-3.5,0.5
				s-2.8,0.5-4.2,0.5s-2.8-0.2-4-0.5c-1.3-0.4-2.5-0.5-3.6-0.5c-5.8,0-8.4,4.6-10.1,7.7c-0.7,1.2-1.3,2.3-1.8,3.3
				c-2.3,4.3-3.9,7.1-4.9,7.1c-1.2,0-3.6-1.1-7-2.5c-1.3-0.5-2.7-1.2-4.3-1.8c-3.6-1.5-6.7-2.8-7.1-3.6s0.5-4,1.5-7.7v-0.1v-0.1
				c4.2-9.1,0.2-14.9-4.6-20.5c-5.3-6.1-10.5-8.9-16.5-8.9c-3.2,0-6.8,0.9-10.7,2.6c-1.1,0.5-2,0.7-2.7,0.7c-0.6,0-2.2,0-3.5-4
				c-1.2-3.6-2.7-7.4-4.9-11.8c-0.7-1.4-0.9-2.5-0.6-3.3s1.4-1.4,2.2-1.7c12.3-4.6,17.1-12.6,15.7-25.8c-0.8-7.5-2.5-11.9-9.3-15.4
				c-4.2-2.2-8.1-4.2-8.7-5.4c-0.4-0.7,0.8-3.4,2-6.2c0.4-1,0.9-2,1.4-3.2c0.7-1.7,1.3-3.3,1.8-4.6c1.8-4.9,2.1-4.9,3.2-4.9
				c2,0,5.9,1.2,9.5,2.5c2.7,0.9,4.9,1.4,7,1.4c4.7,0,8.4-2.4,11-7.2c0.3-0.5,0.7-0.9,0.9-1c10.9-5.8,9.6-14.7,6.6-23.3
				c-0.6-1.8-1.9-5.6-1.5-6.4s3.5-2,6.1-3.1c2.4-1,4.5-1.9,6.2-2.6c2.9-1.3,5.2-2.3,6.3-2.3c1.1,0,2.8,3.3,5.5,8.2
				c0.5,1,1.1,2.1,1.8,3.3c1.7,3.1,4.3,6.6,9.4,6.6c1,0,1.9-0.1,3-0.4c1.5-0.3,3-0.5,4.4-0.5c1.3,0,2.4,0.1,3.5,0.4
				c1.4,0.4,2.7,0.6,4,0.6c6.3,0,9.3-4.6,11.6-9C170.5,82.9,172.7,78.6,173.8,78.6 M149.6,213.7c27.1,0,49.3-22.2,49.6-49.4
				c0.1-13.2-5-25.8-14.4-35.4s-21.9-14.9-35.1-15h-0.3c-27.3,0-49.7,22.3-50,49.7c-0.1,13.1,5,25.5,14.3,35
				c9.5,9.7,22.2,15,35.6,15.1H149.6 M173.8,75.6c-2.8,0-4.4,2.8-8.7,10.9c-2.3,4.3-4.5,7.4-8.9,7.4c-1,0-2-0.1-3.2-0.5
				c-1.3-0.4-2.8-0.5-4.2-0.5c-1.7,0-3.4,0.2-5,0.6c-0.9,0.2-1.7,0.3-2.4,0.3c-3.1,0-5-1.8-6.7-5c-5.3-9.6-6.7-13.1-9.9-13.1
				c-2.5,0-6.2,2.1-13.6,5.1c-8.9,3.6-9.5,4-6.3,13.2c2.8,8.1,3.6,14.9-5.2,19.7c-0.9,0.5-1.7,1.3-2.1,2.2c-2.2,4-5,5.6-8.4,5.6
				c-1.8,0-3.8-0.4-6-1.2c-5.1-1.7-8.3-2.6-10.5-2.6c-4.5,0-4.6,3.7-7.8,11.3c-5.1,12.2-6.6,11.7,6.7,18.6c5.8,3,7,6.5,7.7,13.1
				c1.3,12.2-3.1,18.6-13.8,22.6c-4.1,1.5-5.3,4.8-3.2,9.1c1.8,3.7,3.5,7.5,4.7,11.4c1.3,4,3.3,6.1,6.4,6.1c1.2,0,2.5-0.3,3.9-1
				c3.4-1.5,6.6-2.3,9.5-2.3c5,0,9.5,2.4,14.2,7.8c5.2,6,7.4,10.4,4.1,17.3c-0.1,0.2-0.1,0.4-0.2,0.6c-2.9,10.6-2.9,10.6,7.3,14.9
				c6.7,2.8,10.1,4.6,12.5,4.6c3.2,0,4.5-3.3,9.3-12c2-3.5,3.8-6.2,7.5-6.2c0.8,0,1.8,0.1,2.8,0.4c1.5,0.4,3.2,0.6,4.8,0.6
				c1.7,0,3.4-0.2,5-0.6c1-0.3,1.9-0.4,2.8-0.4c3.5,0,5.3,2.3,7.2,5.7c5,9,6.2,12.4,9.5,12.4c2.4,0,5.8-1.8,12.6-4.7
				c10-4.2,10.6-4.4,7.1-14.4c-2.8-7.9-2.9-14,5-18.7c2.2-1.3,3.4-4.2,5.6-5.7c1.6-1.1,3.9-2.2,5.9-2.2c0.3,0,0.5,0,0.7,0.1
				c4.9,0.8,9.6,2.5,16.1,4.3c1.6-2.3,3.8-4.7,5-7.6c7.5-18.6,9.6-15-8.1-25c-3.7-2.1-4.8-4.1-4.1-8.3c0.6-4,0.6-8.3,0-12.3
				s0.7-5.8,4-7.7c17.5-10,16-6.1,8.4-25c-2-5.1-3.2-7.1-6-7.1c-1.5,0-3.4,0.6-6.1,1.6c-3.4,1.2-6.7,2.1-9.7,2.1
				c-4.4,0-8.1-1.9-11.2-7.4c-0.3-0.5-0.8-1-1.3-1.3c-6.8-3.8-7.1-9-4.8-16c4-12,3.6-12.2-8.3-17C179.1,77.3,176.1,75.6,173.8,75.6
				L173.8,75.6z M149.6,210.7c-0.1,0-0.2,0-0.3,0c-25.9-0.1-47.2-21.5-46.9-47c0.2-25.8,21.3-46.8,47-46.8c0.1,0,0.2,0,0.2,0
				c25.7,0.1,46.9,21.7,46.6,47.4C195.9,189.6,174.8,210.7,149.6,210.7L149.6,210.7z"/>
		</g>
	</g>
	<g>
		<circle class="st1" cx="149.3" cy="163.7" r="43.6"/>
	</g>
	<g>
		<circle class="st2" cx="149.3" cy="163.7" r="40.7"/>
	</g>
	<g>
		<circle class="st0" cx="149.3" cy="163.7" r="34.6"/>
		<path class="st3" d="M123.7,173.9c-0.4,0-0.8-0.1-1.1-0.4s-0.4-0.6-0.4-1.1s0.1-0.8,0.4-1.1s0.6-0.4,1.1-0.4
			c0.4,0,0.8,0.2,1.1,0.4c0.3,0.3,0.4,0.6,0.4,1.1s-0.1,0.8-0.4,1.1S124.2,173.9,123.7,173.9z"/>
		<path class="st3" d="M145.2,173.6h-2.8l-10.2-15.7c-0.2-0.4-0.4-0.8-0.6-1.2h-0.1c0.1,0.9,0.1,1.8,0.1,2.7v14.3h-2.3v-19.8h3
			l9.8,15.5c0.4,0.6,0.6,1.1,0.8,1.3l0,0c-0.1-1-0.1-1.9-0.1-2.9V154h2.3v19.7h0.1V173.6z"/>
		<path class="st3" d="M160.8,173.6h-10.5v-19.7h10v2.1h-7.7v6.6h7.1v2.1h-7.1v6.8h8.1L160.8,173.6z"/>
		<path class="st3" d="M176.3,155.9h-5.7v17.6h-2.3v-17.6h-5.6v-2.1h13.6V155.9z"/>
	</g>
	<line class="st4" x1="98" y1="44.7" x2="114.6" y2="79.3"/>
	<polygon class="st0" points="98.5,45.7 81.4,45.5 73,30.6 81.6,15.9 98.7,16.1 107.1,30.9 	"/>
	<line class="st4" x1="200.7" y1="45.5" x2="184.7" y2="80.4"/>
	<polygon class="st0" points="200.3,46.5 189.5,33.3 195.5,17.3 212.4,14.6 223.2,27.8 217.1,43.8 	"/>
	<line class="st4" x1="268.8" y1="117.9" x2="232.1" y2="129"/>
	<polygon class="st0" points="267.8,118.3 270.6,101.4 286.6,95.4 299.8,106.3 297,123.1 281,129.1 	"/>
	<line class="st4" x1="265.2" y1="216.3" x2="230.9" y2="199"/>
	<polygon class="st0" points="264.2,215.8 277.8,205.5 293.6,212.2 295.7,229.2 282,239.5 266.3,232.8 	"/>
	<line class="st4" x1="202.7" y1="280.7" x2="184.3" y2="247"/>
	<polygon class="st0" points="202.2,279.7 219.2,279 228.4,293.4 220.5,308.6 203.4,309.3 194.3,294.9 	"/>
	<line class="st4" x1="99.5" y1="282.6" x2="114" y2="247"/>
	<polygon class="st0" points="99.9,281.6 111.3,294.3 105.9,310.5 89.2,314 77.8,301.2 83.2,285 	"/>
	<line class="st4" x1="31" y1="213.9" x2="66.1" y2="198.3"/>
	<polygon class="st0" points="32,213.4 31.3,230.5 16.1,238.4 1.7,229.2 2.4,212.2 17.6,204.2 	"/>
	<line class="st4" x1="31" y1="110.4" x2="64.6" y2="129.1"/>
	<polygon class="st0" points="32,110.9 17.9,120.6 2.5,113.3 1.1,96.3 15.2,86.6 30.6,93.9 	"/>
</g>
</svg>
