<svg xmlns="http://www.w3.org/2000/svg" viewBox="0 0 75 81.37"><defs><style>.cls-1{fill:#5c78a3;}</style></defs><g id="Layer_2" data-name="Layer 2"><g id="Layer_1-2" data-name="Layer 1"><path class="cls-1" d="M35.12,81.37c-1.44-.2-2.88-.36-4.31-.62A36.59,36.59,0,0,1,10.72,70.11,35.86,35.86,0,0,1,.37,49.19c-1.63-12.68,2.11-23.6,11.31-32.54a36,36,0,0,1,15.94-9c2.16-.58,4.4-.88,6.68-1.33V0h6.37V6.44a37.58,37.58,0,0,1,17.58,6.11L61,9.28l-4.3-3.6L60.74.79,74.26,12.07,70.19,17l-4.33-3.59-2.59,3.11c.93,1,1.87,2,2.75,3a36.5,36.5,0,0,1,8.72,19.84A37.45,37.45,0,0,1,52,78.46a35.57,35.57,0,0,1-11.45,2.77,5.47,5.47,0,0,0-.68.14ZM37.5,75A31.18,31.18,0,1,0,6.33,43.85,31.29,31.29,0,0,0,37.5,75Z"/><path class="cls-1" d="M55.47,26.69l-11,13.59a3.69,3.69,0,0,0-.63.81,1.78,1.78,0,0,0-.22,1.06,6.16,6.16,0,0,1-1.94,6.41A5.94,5.94,0,0,1,35,49.63,6.09,6.09,0,0,1,31.16,44a6.33,6.33,0,0,1,6.58-6.44,1.43,1.43,0,0,0,1.32-.63c3.63-4.52,7.29-9,10.93-13.54l.55-.64Z"/></g></g></svg>