<svg xmlns="http://www.w3.org/2000/svg" viewBox="0 0 100 99.82"><defs><style>.cls-1{fill:#6ab2ff;}</style></defs><g id="Layer_2" data-name="Layer 2"><g id="Layer_1-2" data-name="Layer 1"><path class="cls-1" d="M6.22,89.28c0-2,0-3.81,0-5.64,0-1.48.49-1.94,2-2h4V42.23c-.87-.9-1.82-1.5-2.2-2.36a10.57,10.57,0,0,1-.36-3.19H3c-.49,0-1,0-1.47,0A1.44,1.44,0,0,1,0,35.09c0-1.86,0-3.72,0-5.59,0-.87.56-1.29,1.23-1.67L27,12.92C34.2,8.77,41.39,4.64,48.53.46a2.51,2.51,0,0,1,2.9,0Q74.8,14,98.2,27.49A2.88,2.88,0,0,1,100,30.57a36.84,36.84,0,0,0,0,3.79c0,2-.37,2.32-2.36,2.32H90.3c-.11,2.06.42,4.47-2.53,5v40h3.91c1.6,0,2,.44,2,2.08s0,3.57,0,5.51c1.46,0,2.86,0,4.25,0s2,.49,2,2q0,3.27,0,6.53c0,1.6-.46,2.06-2.07,2.06H2.27C.38,99.82,0,99.44,0,97.54v-6c0-1.87.39-2.25,2.3-2.25ZM97,33.66c0-.86,0-1.67,0-2.47a1.38,1.38,0,0,0-.87-1.46Q73.49,16.65,50.86,3.53a1.55,1.55,0,0,0-1.8,0q-8.62,5-17.3,10-14,8.09-28,16.19c-.33.19-.77.53-.8.83-.1,1,0,2,0,3ZM22.85,41.72V81.61h11V55.29c0-4.22,0-8.44,0-12.65a1.29,1.29,0,0,0-.56-1,2.86,2.86,0,0,1-1.95-2.93c0-.65,0-1.3,0-2h-6C25.27,38.79,25.74,41.12,22.85,41.72Zm45.72-5c0,.87,0,1.6,0,2.33a2.44,2.44,0,0,1-1.71,2.42c-.76.24-.82.66-.82,1.3q0,18.93,0,37.85v1H77.14V41.74c-2.93-.58-2.46-2.94-2.51-5ZM55.45,81.66V41.72c-2.91-.58-2.4-2.94-2.51-5H47c0,2.13.35,4.46-2.46,5V81.66ZM3,96.8H96.92V92.28H3ZM90.75,84.72H9.24V89.2H90.75ZM15.26,49.05V81.64h4.51V49.05ZM36.88,81.6h4.55V49.08H36.88ZM58.55,49V81.62H63V49Zm21.66,0V81.64h4.5V49.05Zm4.56-3V42.3c0-2.18.44-2.83,2.46-3.61V36.74H77.66v2c1.93.65,2.47,1.41,2.47,3.43V46ZM15.18,46h4.64c0-1.13.06-2.18,0-3.22-.13-2,.32-3.57,2.48-4v-2H12.7v1.93c2,.74,2.48,1.43,2.48,3.53ZM44,36.75H34.32a8,8,0,0,0,0,1.31c0,.29.22.71.43.78a3,3,0,0,1,2.09,3.27c0,1.28,0,2.57,0,3.85H41.5V41.58a2.27,2.27,0,0,1,1.39-2.4C44.32,38.75,44,37.82,44,36.75Zm21.66,0H56.05c-.25,1.59-.22,1.91.35,2.1A2.84,2.84,0,0,1,58.47,42c0,1.32,0,2.64,0,4H63.1c0-1.53,0-2.89,0-4.26a2.89,2.89,0,0,1,2-2.92,1.09,1.09,0,0,0,.53-.71A8.06,8.06,0,0,0,65.63,36.76Z"/><path class="cls-1" d="M50,28.54A6.54,6.54,0,1,1,56.51,22,6.55,6.55,0,0,1,50,28.54ZM46.4,22a3.58,3.58,0,1,0,3.52-3.58A3.59,3.59,0,0,0,46.4,22Z"/></g></g></svg>