<svg xmlns="http://www.w3.org/2000/svg" viewBox="0 0 75 75"><defs><style>.cls-1{fill:#50a5ff;}</style></defs><g id="Layer_2" data-name="Layer 2"><g id="Layer_1-2" data-name="Layer 1"><path class="cls-1" d="M30.48,75H1.78A2.71,2.71,0,0,1,0,72.06c.08-2,0-4,0-5.93V45.27a2.29,2.29,0,0,1,2.5-2.5c1.49,0,3,0,4.47,0,.21,0,.42,0,.66-.05V3c0-2.19.77-3,2.93-3Q41.32,0,72.06,0A2.76,2.76,0,0,1,75,1.78V65.62a2.8,2.8,0,0,1-3,1.77q-19.41,0-38.84,0h-1c0,1.67,0,3.23,0,4.78A2.62,2.62,0,0,1,30.48,75ZM46.81,24.92H38a2.29,2.29,0,1,1,0-4.55q7.09,0,14.2,0a2.28,2.28,0,0,1,2.5,2.49c0,4.74,0,9.47,0,14.21a3.18,3.18,0,0,1-.09.87,2.27,2.27,0,0,1-4.46-.62c0-2.73,0-5.46,0-8.2v-.89c-.24.21-.37.31-.49.43q-8.49,8.49-17,17a1.57,1.57,0,0,0-.37,1c0,5.1,0,10.2,0,15.3v.77H70.4V4.63H12.27V42.77h.85c5.05,0,10.1,0,15.15,0a1.63,1.63,0,0,0,1.28-.53q8.31-8.36,16.66-16.68C46.38,25.41,46.53,25.23,46.81,24.92ZM27.63,70.4V50.75l-.17-.12a5.26,5.26,0,0,1-.49.65c-2.94,3-5.9,5.91-8.85,8.85a14.47,14.47,0,0,1-1.26,1.22,2.27,2.27,0,0,1-3.62-1.2A2.38,2.38,0,0,1,14,57.77Q18.92,52.9,23.79,48c.18-.18.34-.38.57-.62H4.63v23Z"/></g></g></svg>