<svg xmlns="http://www.w3.org/2000/svg" viewBox="0 0 100 99.69"><defs><style>.cls-1{fill:#77d4ec;}</style></defs><g id="Layer_2" data-name="Layer 2"><g id="Layer_1-2" data-name="Layer 1"><path class="cls-1" d="M100,8.82c-.72,2.35-1.29,4.76-2.19,7a24.27,24.27,0,0,1-5.6,8.49c-4.37,4.29-8.67,8.66-13,13a1.54,1.54,0,0,0-.54,1.52q2.15,13.44,4.23,26.9,1.64,10.42,3.24,20.84a1.47,1.47,0,0,1-.33,1.09C81.91,91.61,78,95.52,74.06,99.43a3,3,0,0,1-.35.26c-5.33-13.61-10.65-27.18-16-40.82-.29.27-.52.48-.75.71-4,4-8,8-12,11.94a2.3,2.3,0,0,0-.72,1.7c-.3,5.66-.64,11.32-1,17a1.59,1.59,0,0,1-.36,1c-2.79,2.83-5.61,5.63-8.42,8.43,0,0-.12,0-.27.09C31,93,27.79,86.35,24.52,79.59L19,85.17,14.83,81l5.63-5.58L.18,65.66c.22-.26.38-.48.57-.67,2.58-2.58,5.15-5.17,7.76-7.72a2.31,2.31,0,0,1,1.34-.59c5.39-.35,10.79-.68,16.19-1a3.85,3.85,0,0,0,2.81-1.22C32.53,50.73,36.29,47,40,43.3a6,6,0,0,1,.88-.61l-.16-.29L0,26.43c.22-.26.36-.45.53-.62C4.3,22,8.09,18.26,11.85,14.46A1.5,1.5,0,0,1,13.31,14c9.76,1.56,19.54,3.08,29.31,4.62,6,.94,12,1.88,18,2.86a1.83,1.83,0,0,0,1.8-.57Q69,14.23,75.71,7.62A27.24,27.24,0,0,1,90.55.14a12.05,12.05,0,0,1,4.63.2c2.63.6,4.08,2.5,4.63,5.11,0,.21.13.42.19.64ZM35.94,89.72a3.5,3.5,0,0,0,1.71-3.13c.24-5.34.61-10.66.89-16a2.5,2.5,0,0,1,.84-1.76Q63.58,44.67,87.75,20.5A22.57,22.57,0,0,0,94,8.3c.4-2.15-.1-2.74-2.26-2.4a21.24,21.24,0,0,0-11.39,5.37c-2,1.9-4,3.94-5.95,5.92Q52.74,38.89,31,60.57a2.44,2.44,0,0,1-1.37.77c-5.58.38-11.17.74-16.77,1A3.36,3.36,0,0,0,10.22,64c.32.17.57.31.83.43,4.31,2.08,8.62,4.14,12.91,6.25a1.06,1.06,0,0,0,1.48-.27c1.43-1.5,2.91-3,4.24-4.29l4.17,4.15c-1.42,1.42-2.93,2.9-4.39,4.43a1.19,1.19,0,0,0-.26,1C31.41,80.36,33.67,85,35.94,89.72Zm40-.43c1.33-1.34,2.53-2.52,3.69-3.76a1.24,1.24,0,0,0,.24-.94c-.4-2.8-.85-5.59-1.29-8.38l-4.2-26.79c-.32-2-.65-4.07-1-6.24l-.74.71c-3.25,3.24-6.48,6.5-9.75,9.72a1.24,1.24,0,0,0-.33,1.59c3.33,8.43,6.62,16.87,9.93,25.31C73.62,83.38,74.75,86.24,76,89.29ZM10.44,24.16c.28.14.45.23.63.3q16.83,6.6,33.66,13.21A1,1,0,0,0,46,37.35c3.3-3.33,6.62-6.63,9.93-10,.17-.17.3-.37.48-.58a2.24,2.24,0,0,0-.34-.16L15,20.22a1,1,0,0,0-.78.21C13,21.64,11.73,22.88,10.44,24.16Z"/></g></g></svg>